<?xml version="1.0" encoding="utf-8"?>
<!-- Generator: Adobe Illustrator 26.0.1, SVG Export Plug-In . SVG Version: 6.00 Build 0)  -->
<svg version="1.1" id="layer" xmlns="http://www.w3.org/2000/svg" xmlns:xlink="http://www.w3.org/1999/xlink" x="0px" y="0px"
	 viewBox="0 0 45.1 49.6" style="enable-background:new 0 0 45.1 49.6;" xml:space="preserve">
<style type="text/css">
	.st0{fill:#16AB03;}
	.st1{fill:#5E33BF;}
</style>
<path class="st0" d="M36.3,27.7c-6.1,6.1-13.9,10.1-22.4,11.5c1.4,3.7,3.3,7.3,5.7,10.4c9.7-2.4,18.6-7.5,25.5-14.7
	c-1.6-3.7-3.7-7.1-6.2-10.1C38.1,25.8,37.2,26.8,36.3,27.7"/>
<path d="M13.9,39.2c-3.4-9.3-3.3-19.5,0.1-28.8c-3.9-0.7-7.9-0.8-11.9-0.3C-0.7,19.7-0.7,29.9,2,39.5C6,40,10,39.9,13.9,39.2"/>
<path class="st1" d="M19.8,0c-2.4,3.2-4.4,6.7-5.8,10.4c8.4,1.4,16.2,5.5,22.3,11.5c0.9,0.9,1.8,1.9,2.6,2.9
	c2.5-3.1,4.6-6.5,6.2-10.1C38.2,7.5,29.4,2.4,19.8,0"/>
</svg>
