<?xml version="1.0" encoding="UTF-8" standalone="no"?>
<svg
   id="图层_1"
   data-name="图层 1"
   viewBox="0 0 85.04 85.04"
   version="1.1"
   sodipodi:docname="logo-seu.svg"
   inkscape:version="1.1.2 (b8e25be833, 2022-02-05)"
   xmlns:inkscape="http://www.inkscape.org/namespaces/inkscape"
   xmlns:sodipodi="http://sodipodi.sourceforge.net/DTD/sodipodi-0.dtd"
   xmlns="http://www.w3.org/2000/svg"
   xmlns:svg="http://www.w3.org/2000/svg">
  <sodipodi:namedview
     id="namedview147"
     pagecolor="#ffffff"
     bordercolor="#666666"
     borderopacity="1.0"
     inkscape:pageshadow="2"
     inkscape:pageopacity="0.0"
     inkscape:pagecheckerboard="0"
     showgrid="false"
     inkscape:zoom="4.2274223"
     inkscape:cx="29.450571"
     inkscape:cy="22.117497"
     inkscape:window-width="1920"
     inkscape:window-height="1013"
     inkscape:window-x="-9"
     inkscape:window-y="-9"
     inkscape:window-maximized="1"
     inkscape:current-layer="图层_1" />
  <defs
     id="defs4">
    <style
       id="style2">.cls-1{fill:#fdd000;}.cls-2{fill:#231815;}.cls-3{fill:#58561a;}.cls-4{fill:#4d7c2c;}.cls-5{fill:none;stroke:#231815;stroke-width:1.09px;}.cls-6{fill:#fff;}</style>
  </defs>
  <path
     class="cls-1"
     d="M5,45a40,40,0,0,1,40-40h0A40,40,0,0,1,85,45h0A40,40,0,0,1,45,85h0A40,40,0,0,1,5,45Z"
     transform="translate(-2.48 -2.45)"
     id="path6" />
  <path
     class="cls-2"
     d="M2.48,45A42.52,42.52,0,0,1,45,2.45h0A42.53,42.53,0,0,1,87.52,45h0A42.53,42.53,0,0,1,45,87.49h0A42.52,42.52,0,0,1,2.48,45ZM16.05,16A40.81,40.81,0,0,0,4.07,45h0a40.79,40.79,0,0,0,12,28.93h0A40.81,40.81,0,0,0,45,85.89h0a40.78,40.78,0,0,0,28.94-12h0A40.75,40.75,0,0,0,85.92,45h0A40.77,40.77,0,0,0,73.93,16h0A40.77,40.77,0,0,0,45,4.06h0A40.8,40.8,0,0,0,16.05,16Z"
     transform="translate(-2.48 -2.45)"
     id="path8" />
  <path
     class="cls-3"
     d="M5,45a40,40,0,0,1,40-40h0A40,40,0,0,1,85,45h0A40,40,0,0,1,45,85h0A40,40,0,0,1,5,45ZM17.25,17.23A39.12,39.12,0,0,0,5.75,45h0a39.12,39.12,0,0,0,11.5,27.74h0A39.11,39.11,0,0,0,45,84.2h0A39.12,39.12,0,0,0,72.74,72.71h0A39.11,39.11,0,0,0,84.23,45h0A39.11,39.11,0,0,0,72.74,17.23h0A39.08,39.08,0,0,0,45,5.73h0a39.08,39.08,0,0,0-27.74,11.5Z"
     transform="translate(-2.48 -2.45)"
     id="path10" />
  <path
     class="cls-2"
     d="M5,45a40,40,0,0,1,40-40h0A40,40,0,0,1,85,45h0A40,40,0,0,1,45,85h0A40,40,0,0,1,5,45ZM17.25,17.23A39.12,39.12,0,0,0,5.75,45h0a39.12,39.12,0,0,0,11.5,27.74h0A39.11,39.11,0,0,0,45,84.2h0A39.12,39.12,0,0,0,72.74,72.71h0A39.11,39.11,0,0,0,84.23,45h0A39.11,39.11,0,0,0,72.74,17.23h0A39.08,39.08,0,0,0,45,5.73h0a39.08,39.08,0,0,0-27.74,11.5Z"
     transform="translate(-2.48 -2.45)"
     id="path12" />
  <path
     class="cls-2"
     d="M9.57,58l1.83-.81.07.17a2.06,2.06,0,0,0-.86,1.06,1.6,1.6,0,0,0,0,1.18,1.06,1.06,0,0,0,.5.57.75.75,0,0,0,.62,0A.72.72,0,0,0,12,60a1.69,1.69,0,0,0,.21-.54,9.5,9.5,0,0,0,.11-1.09,4.33,4.33,0,0,1,.34-1.69,1.66,1.66,0,0,1,.83-.74,1.65,1.65,0,0,1,1.42,0A2.08,2.08,0,0,1,16,57.13a2.8,2.8,0,0,1,.16.52,3.9,3.9,0,0,1,0,.67,1.11,1.11,0,0,0,.05.36.41.41,0,0,0,.18.19.58.58,0,0,0,.33.09l.07.14L14.76,60l-.06-.15a2.6,2.6,0,0,0,1-1.26,1.74,1.74,0,0,0,0-1.31,1.14,1.14,0,0,0-.56-.63.77.77,0,0,0-.69,0,.84.84,0,0,0-.34.26,1.4,1.4,0,0,0-.21.46,4.19,4.19,0,0,0-.11.94,7.61,7.61,0,0,1-.18,1.35,2,2,0,0,1-.37.75,1.52,1.52,0,0,1-.63.48,1.59,1.59,0,0,1-1.33,0,1.84,1.84,0,0,1-1-1,2.16,2.16,0,0,1-.16-.55,3,3,0,0,1,0-.55,1.22,1.22,0,0,0,0-.44.24.24,0,0,0-.14-.14.65.65,0,0,0-.36,0Z"
     transform="translate(-2.48 -2.45)"
     id="path14" />
  <path
     class="cls-2"
     d="M8,51.69A3,3,0,0,1,10.4,48a3.2,3.2,0,0,1,2.09.3,3,3,0,0,1,1.57,2.25,3.06,3.06,0,0,1-.64,2.66,3.16,3.16,0,0,1-1.9,1.05,3.07,3.07,0,0,1-2.35-.5A2.9,2.9,0,0,1,8,51.69Zm.28-.1a1.38,1.38,0,0,0,1,1.08,4.65,4.65,0,0,0,2,0,3.81,3.81,0,0,0,2.13-.93,1.2,1.2,0,0,0,.32-1.12,1.23,1.23,0,0,0-.35-.71,1.75,1.75,0,0,0-1-.43,4.59,4.59,0,0,0-1.62.07,5.23,5.23,0,0,0-1.71.53,1.68,1.68,0,0,0-.72.7A1.33,1.33,0,0,0,8.23,51.59Z"
     transform="translate(-2.48 -2.45)"
     id="path16" />
  <path
     class="cls-2"
     d="M7.31,45.6l.2-3.08h.16v.15a1,1,0,0,0,0,.48.44.44,0,0,0,.18.2,2.28,2.28,0,0,0,.64.09l2.93.19a3.46,3.46,0,0,0,1.08,0,1,1,0,0,0,.45-.37,1.31,1.31,0,0,0,.22-.69A1.41,1.41,0,0,0,13,41.7a1.32,1.32,0,0,0-.57-.55,3.91,3.91,0,0,0-1.33-.25L8.7,40.74a1.52,1.52,0,0,0-.58,0,.5.5,0,0,0-.25.19,1.41,1.41,0,0,0-.14.55H7.58l.13-2.08.16,0v.12a.72.72,0,0,0,.07.42.53.53,0,0,0,.29.26,1.26,1.26,0,0,0,.5.09L11,40.5a5.74,5.74,0,0,1,1.51.23,1.66,1.66,0,0,1,.82.73,2.54,2.54,0,0,1,.31,1.5,2.82,2.82,0,0,1-.29,1.18,1.7,1.7,0,0,1-.78.77,2.51,2.51,0,0,1-1.2.16l-2.93-.19a2.69,2.69,0,0,0-.65,0,.47.47,0,0,0-.21.19,1.26,1.26,0,0,0-.11.52Z"
     transform="translate(-2.48 -2.45)"
     id="path18" />
  <path
     class="cls-2"
     d="M9.79,31.56l1.56.47,0,.15a2.36,2.36,0,0,0-.87.07,1.21,1.21,0,0,0-.51.34,1.51,1.51,0,0,0-.25.54l-.13.43L14,34.9a3.13,3.13,0,0,0,.57.12.6.6,0,0,0,.25-.13.77.77,0,0,0,.2-.36l.06-.19.15,0-.9,3-.15,0,.05-.19a1,1,0,0,0,0-.43.48.48,0,0,0-.16-.23,2,2,0,0,0-.52-.21L9.14,34.94,9,35.37a1.26,1.26,0,0,0,0,.92,1.77,1.77,0,0,0,.84.77l-.05.15-1.56-.47Z"
     transform="translate(-2.48 -2.45)"
     id="path20" />
  <path
     class="cls-2"
     d="M14.71,28.53l1.6.94a2,2,0,0,0,.53.24.42.42,0,0,0,.27-.07.75.75,0,0,0,.28-.3l.1-.17.14.09L16.05,32l-.14-.08.1-.17a.81.81,0,0,0,.13-.41.39.39,0,0,0-.09-.26,2.24,2.24,0,0,0-.47-.33l-3.41-2a1.78,1.78,0,0,0-.52-.25.41.41,0,0,0-.27.07.69.69,0,0,0-.28.3L11,29l-.14-.08,1.58-2.69.13.08-.1.17a.73.73,0,0,0-.12.4.37.37,0,0,0,.09.27,2.08,2.08,0,0,0,.46.32l1.47.86,1.07-1.84L14,25.63a1.92,1.92,0,0,0-.53-.25.42.42,0,0,0-.27.07.82.82,0,0,0-.28.3l-.1.17-.14-.08,1.58-2.7.13.08-.09.17a.81.81,0,0,0-.13.41.48.48,0,0,0,.09.26,2,2,0,0,0,.46.33l3.41,2a1.79,1.79,0,0,0,.53.25.42.42,0,0,0,.27-.07.75.75,0,0,0,.28-.3l.1-.17.14.08-1.58,2.7-.14-.08.1-.17a.81.81,0,0,0,.13-.41.48.48,0,0,0-.09-.26,2,2,0,0,0-.46-.33l-1.61-.94Z"
     transform="translate(-2.48 -2.45)"
     id="path22" />
  <path
     class="cls-2"
     d="M17.72,19.65l1.76,1.68.08-.08a.92.92,0,0,0,.31-.85,2.19,2.19,0,0,0-.53-1l.1-.12,2.28,2.18-.11.11a2.39,2.39,0,0,0-.76-.41.93.93,0,0,0-.59,0,1.63,1.63,0,0,0-.54.39l1.22,1.17a2.72,2.72,0,0,0,.47.4.39.39,0,0,0,.24,0,.85.85,0,0,0,.31-.22l.25-.26a2.21,2.21,0,0,0,.65-1.24,2.08,2.08,0,0,0-.36-1.34l.12-.12,1.19,1.51-3.58,3.74-.11-.11.13-.15a.73.73,0,0,0,.23-.36.4.4,0,0,0,0-.28,1.9,1.9,0,0,0-.37-.42l-2.85-2.73a3.37,3.37,0,0,0-.38-.33.44.44,0,0,0-.29,0,.74.74,0,0,0-.41.24l-.14.14-.11-.1,3.46-3.62,1.28,1.22-.11.12a2,2,0,0,0-.92-.38,1.3,1.3,0,0,0-.76.19,3.42,3.42,0,0,0-.7.62Z"
     transform="translate(-2.48 -2.45)"
     id="path24" />
  <path
     class="cls-2"
     d="M27.16,16.86,25.41,18l.11.64a1.34,1.34,0,0,0,.16.47.4.4,0,0,0,.38.21,1.75,1.75,0,0,0,.55-.23l.09.13L25,20.32,25,20.19a.88.88,0,0,0,.29-.52,3.65,3.65,0,0,0-.08-1.05l-.84-5.17.07,0,4.5,2.94a3.1,3.1,0,0,0,.92.46.69.69,0,0,0,.45-.09l.08.13-2.42,1.59-.09-.13.11-.07a1,1,0,0,0,.35-.35.27.27,0,0,0,0-.23.34.34,0,0,0-.12-.12l-.29-.21Zm-.31-.2L25,15.44l.36,2.21Z"
     transform="translate(-2.48 -2.45)"
     id="path26" />
  <path
     class="cls-2"
     d="M33.1,9.15,33.86,11l-.17.07a2.07,2.07,0,0,0-1-.9,1.64,1.64,0,0,0-1.19,0,1.05,1.05,0,0,0-.58.48.76.76,0,0,0-.05.62.81.81,0,0,0,.21.3,1.54,1.54,0,0,0,.53.23,9.42,9.42,0,0,0,1.09.14,4.27,4.27,0,0,1,1.68.4,1.65,1.65,0,0,1,.71.85A1.73,1.73,0,0,1,35,14.57a2.41,2.41,0,0,1-1.74,1.18,4.24,4.24,0,0,1-.67,0,1.19,1.19,0,0,0-.36,0A.48.48,0,0,0,32,16a.61.61,0,0,0-.1.32l-.14.06L31,14.27l.15-.06a2.58,2.58,0,0,0,1.23,1.09,1.81,1.81,0,0,0,1.31,0,1.19,1.19,0,0,0,.65-.54.83.83,0,0,0,.05-.7.76.76,0,0,0-.25-.34,1.32,1.32,0,0,0-.46-.23,4.85,4.85,0,0,0-.93-.14,7.5,7.5,0,0,1-1.34-.22,2.23,2.23,0,0,1-.75-.39,1.67,1.67,0,0,1-.39-2,1.87,1.87,0,0,1,1.07-1,2.22,2.22,0,0,1,.55-.14,3.2,3.2,0,0,1,.55,0,1.47,1.47,0,0,0,.45,0A.24.24,0,0,0,33,9.55a.69.69,0,0,0,0-.36Z"
     transform="translate(-2.48 -2.45)"
     id="path28" />
  <path
     class="cls-2"
     d="M41.61,7.46l.27,1.61-.16,0a2.94,2.94,0,0,0-.44-.75,1.31,1.31,0,0,0-.53-.3,1.5,1.5,0,0,0-.6,0l-.44.07.74,4.57a2.21,2.21,0,0,0,.14.57.53.53,0,0,0,.23.17.74.74,0,0,0,.4,0l.2,0,0,.16-3.08.5,0-.16.19,0a.82.82,0,0,0,.4-.16.47.47,0,0,0,.14-.25,1.79,1.79,0,0,0,0-.56l-.74-4.57-.45.07a1.3,1.3,0,0,0-.83.4,1.69,1.69,0,0,0-.32,1.08l-.16,0-.26-1.6Z"
     transform="translate(-2.48 -2.45)"
     id="path30" />
  <path
     class="cls-2"
     d="M48.33,7.43,51.38,8l0,.16-.16,0a1.06,1.06,0,0,0-.47,0,.43.43,0,0,0-.22.17,1.94,1.94,0,0,0-.16.62l-.5,2.9a3,3,0,0,0-.06,1.07,1,1,0,0,0,.32.5,1.25,1.25,0,0,0,.66.28,1.5,1.5,0,0,0,.85-.07,1.47,1.47,0,0,0,.6-.51,4,4,0,0,0,.39-1.3L53,9.32a1.46,1.46,0,0,0,0-.58.52.52,0,0,0-.17-.28,1.34,1.34,0,0,0-.53-.19l0-.15,2,.34,0,.16-.12,0a.76.76,0,0,0-.43,0,.61.61,0,0,0-.29.26,1.64,1.64,0,0,0-.14.49L53,11.63a5.7,5.7,0,0,1-.4,1.48,1.65,1.65,0,0,1-.81.74,2.41,2.41,0,0,1-1.52.14,2.68,2.68,0,0,1-1.14-.4,1.84,1.84,0,0,1-.69-.86,2.4,2.4,0,0,1,0-1.21l.49-2.9A2.1,2.1,0,0,0,49,8a.47.47,0,0,0-.16-.24,1.41,1.41,0,0,0-.51-.15Z"
     transform="translate(-2.48 -2.45)"
     id="path32" />
  <path
     class="cls-2"
     d="M58.49,9.89l1.31,4.55,1-2.35a1.21,1.21,0,0,0,.14-.74.85.85,0,0,0-.56-.51l.06-.14,1.83.76-.06.15a1.31,1.31,0,0,0-.52-.08.48.48,0,0,0-.28.16,1.68,1.68,0,0,0-.3.53l-1.92,4.61L59,16.77,57.2,10.58l-1.48,3.55a.8.8,0,0,0,0,.73.89.89,0,0,0,.44.37l.13.06-.06.15-2-.82.06-.15a1,1,0,0,0,.71.08.92.92,0,0,0,.44-.55l1.63-3.91L57,9.89a.91.91,0,0,0-.19-.43.85.85,0,0,0-.35-.25l.06-.14Z"
     transform="translate(-2.48 -2.45)"
     id="path34" />
  <path
     class="cls-2"
     d="M63.51,19.17l-.09.14-2.61-1.7.09-.13.16.11a.8.8,0,0,0,.4.14.33.33,0,0,0,.26-.08,1.61,1.61,0,0,0,.35-.44l2.15-3.32a2.3,2.3,0,0,0,.28-.51.49.49,0,0,0-.06-.28.8.8,0,0,0-.29-.29L64,12.7l.08-.13,2.62,1.69-.08.14-.17-.11a.9.9,0,0,0-.4-.15.56.56,0,0,0-.27.08,2.25,2.25,0,0,0-.34.46L63.28,18a1.77,1.77,0,0,0-.27.51.42.42,0,0,0,.05.28.8.8,0,0,0,.29.29Z"
     transform="translate(-2.48 -2.45)"
     id="path36" />
  <path
     class="cls-2"
     d="M73,19.77l-.11.12a.94.94,0,0,0-.67-.15,5.23,5.23,0,0,0-1.11.38L66.5,22.06,66.39,22l1.78-4.88A6.67,6.67,0,0,0,68.5,16a.69.69,0,0,0-.21-.46l.1-.12,2.1,2-.11.12-.07-.06a1.14,1.14,0,0,0-.46-.3.22.22,0,0,0-.21.08.74.74,0,0,0-.1.16c0,.07-.11.27-.23.6L68.2,21l2.67-1.12a6.74,6.74,0,0,0,.65-.3,1.05,1.05,0,0,0,.22-.17.36.36,0,0,0,.11-.22.41.41,0,0,0,0-.26,1.46,1.46,0,0,0-.32-.4l.11-.11Z"
     transform="translate(-2.48 -2.45)"
     id="path38" />
  <path
     class="cls-2"
     d="M75.41,23.51l-2,1.38.06.1a1,1,0,0,0,.77.48,2.24,2.24,0,0,0,1.06-.33l.09.13-2.6,1.78-.09-.13a2.37,2.37,0,0,0,.57-.66,1,1,0,0,0,.14-.58,1.49,1.49,0,0,0-.28-.6l-1.4,1a2.52,2.52,0,0,0-.47.38.37.37,0,0,0-.07.23.89.89,0,0,0,.15.35l.21.3a2.15,2.15,0,0,0,1.08.89A2.17,2.17,0,0,0,74,28.11l.09.13-1.73.86-2.92-4.27.13-.09.11.16a.78.78,0,0,0,.32.29.42.42,0,0,0,.28,0,2.66,2.66,0,0,0,.49-.28L74,22.71l.41-.3a.52.52,0,0,0,.11-.27.8.8,0,0,0-.16-.45l-.11-.16.13-.09,2.83,4.12-1.46,1-.09-.14a2.17,2.17,0,0,0,.56-.82,1.39,1.39,0,0,0,0-.78,3.65,3.65,0,0,0-.47-.81Z"
     transform="translate(-2.48 -2.45)"
     id="path40" />
  <path
     class="cls-2"
     d="M76.5,31.37,74.93,32a2,2,0,0,0-.55.28.46.46,0,0,0-.1.27,1.47,1.47,0,0,0,.14.56l-.15.06-1.15-2.87.15-.06a1.39,1.39,0,0,0,.28.5.5.5,0,0,0,.27.12,1.71,1.71,0,0,0,.58-.17L78,29.24a1.67,1.67,0,0,0,.54-.29.44.44,0,0,0,.11-.27,1.32,1.32,0,0,0-.15-.55l.15-.06,1,2.59a5.9,5.9,0,0,1,.45,1.53,1.62,1.62,0,0,1-.21,1,1.5,1.5,0,0,1-.76.66,1.47,1.47,0,0,1-1.2,0,2,2,0,0,1-.7-.64L76,35.24a3.5,3.5,0,0,0-.32.56.74.74,0,0,0,0,.44l-.15.06-.7-1.73,1.82-2.83Zm2.72-1.09-2.41,1,.1.23a2.59,2.59,0,0,0,.45.82.84.84,0,0,0,.55.3,1.46,1.46,0,0,0,.77-.11,1.38,1.38,0,0,0,.81-.68,1.43,1.43,0,0,0-.09-1.09Z"
     transform="translate(-2.48 -2.45)"
     id="path42" />
  <path
     class="cls-2"
     d="M82.4,40l-2,.4,0-.19a2.1,2.1,0,0,0,1.08-.84,1.56,1.56,0,0,0,.25-1.16,1,1,0,0,0-.36-.67.78.78,0,0,0-.59-.16.64.64,0,0,0-.33.16,1.55,1.55,0,0,0-.33.48,8.2,8.2,0,0,0-.34,1,4.31,4.31,0,0,1-.71,1.56,1.62,1.62,0,0,1-1,.55,1.72,1.72,0,0,1-1.38-.35,2.15,2.15,0,0,1-.8-1.38,3.44,3.44,0,0,1,0-.54,4.38,4.38,0,0,1,.11-.67,1.17,1.17,0,0,0,0-.36.45.45,0,0,0-.13-.23.82.82,0,0,0-.31-.16l0-.15,2.23-.4,0,.15a2.53,2.53,0,0,0-1.3,1,1.78,1.78,0,0,0-.28,1.28,1.13,1.13,0,0,0,.41.73.77.77,0,0,0,.67.18.71.71,0,0,0,.38-.18,1.31,1.31,0,0,0,.32-.4,5.65,5.65,0,0,0,.31-.89,6.6,6.6,0,0,1,.47-1.28,2,2,0,0,1,.52-.66A1.48,1.48,0,0,1,80,36.5a1.61,1.61,0,0,1,1.3.3,2.11,2.11,0,0,1,.76,1.81,2.09,2.09,0,0,1-.1.53,1.59,1.59,0,0,0-.06.45.2.2,0,0,0,.1.16.77.77,0,0,0,.35.07Z"
     transform="translate(-2.48 -2.45)"
     id="path44" />
  <path
     class="cls-2"
     d="M76.74,45.78h-.16l-.08-3.12h.17v.19a.81.81,0,0,0,.1.42.43.43,0,0,0,.22.17,2.07,2.07,0,0,0,.56,0l4-.09a2.39,2.39,0,0,0,.58-.06.51.51,0,0,0,.2-.21.77.77,0,0,0,.08-.4v-.19h.16l.08,3.12h-.17v-.2a.84.84,0,0,0-.1-.42.43.43,0,0,0-.22-.17,1.87,1.87,0,0,0-.56,0l-4,.08A1.83,1.83,0,0,0,77,45a.39.39,0,0,0-.2.2.77.77,0,0,0-.08.4Z"
     transform="translate(-2.48 -2.45)"
     id="path46" />
  <path
     class="cls-2"
     d="M81.74,53.23,80.14,53l0-.16a2.62,2.62,0,0,0,.85-.19,1.25,1.25,0,0,0,.45-.41,1.55,1.55,0,0,0,.17-.58l.07-.44-4.58-.69a2.14,2.14,0,0,0-.58,0,.44.44,0,0,0-.24.16.78.78,0,0,0-.14.39l0,.19-.16,0,.46-3.09.16,0,0,.2a1,1,0,0,0,0,.43.45.45,0,0,0,.19.2,1.76,1.76,0,0,0,.55.13l4.58.69.07-.45a1.26,1.26,0,0,0-.13-.91,1.65,1.65,0,0,0-.94-.64l0-.16,1.61.24Z"
     transform="translate(-2.48 -2.45)"
     id="path48" />
  <path
     class="cls-2"
     d="M78.92,61.41l-.14-.06a1,1,0,0,0,0-.48,5.21,5.21,0,0,0-.7-1l-1.57-2-1.35-.52a2.36,2.36,0,0,0-.56-.17.52.52,0,0,0-.26.11.78.78,0,0,0-.21.32l-.12.32-.15-.06,1.2-3.13.15.06-.11.29a.76.76,0,0,0-.07.42.49.49,0,0,0,.14.25,1.88,1.88,0,0,0,.51.25l1.12.43L79.71,56a3.93,3.93,0,0,0,1.05-.23.7.7,0,0,0,.3-.38l.15.06-1,2.67-.15,0,0-.12a.7.7,0,0,0,.06-.37.24.24,0,0,0-.12-.15,2.73,2.73,0,0,0-.89,0l-2.23.3,1.29,1.67a2.31,2.31,0,0,0,.69.69.24.24,0,0,0,.23,0,1.2,1.2,0,0,0,.32-.47l.15.06Z"
     transform="translate(-2.48 -2.45)"
     id="path50" />
  <path
     class="cls-4"
     d="M45.55,75.26l-.56,1-.55-1L44,74.45,20.5,33.8h49L46,74.45Z"
     transform="translate(-2.48 -2.45)"
     id="path52" />
  <path
     class="cls-1"
     d="M58.21,48.42V45.64H55.44A8.92,8.92,0,0,0,52.71,41a9.35,9.35,0,0,0-5.55-2.52V37.18h.52V37a4.57,4.57,0,0,0-1.06-.54,8,8,0,0,0-1.4-.37V34h-.45v2a7.76,7.76,0,0,0-1.4.37,4.34,4.34,0,0,0-1,.54v.21h.51v1.29A11.47,11.47,0,0,0,37.28,41a9.3,9.3,0,0,0-2.73,4.65H31.77v2.78H27.86l8.06,13.94.87,0H53.2l.44,0,.6-.36L62,48.42Z"
     transform="translate(-2.48 -2.45)"
     id="path54" />
  <path
     style="color:#000000;fill:#231815;-inkscape-stroke:none"
     d="m 44.224609,33.455078 v 2.126953 c -0.351357,0.0792 -0.704544,0.151159 -1.042968,0.275391 l -0.002,0.002 -0.0039,0.002 c -0.400211,0.152391 -0.778073,0.356358 -1.125,0.607422 l -0.226562,0.162109 v 1.033203 h 0.511718 v 0.347657 c -1.987851,0.405017 -3.861784,1.255383 -5.410156,2.574218 l -0.0078,0.0059 -0.0078,0.0078 c -1.317194,1.216788 -2.223937,2.789313 -2.722656,4.50586 h -2.962891 v 2.779297 h -4.308593 l 8.689453,15.029296 h 1.183593 16.410157 0.591797 L 54.642578,62.404297 62.939453,47.875 H 58.755859 V 45.095703 H 55.802734 C 55.319083,43.373084 54.410807,41.798611 53.076172,40.597656 51.597814,39.200293 49.709525,38.36404 47.705078,38.068359 v -0.34375 h 0.519531 v -1.011718 l -0.236328,-0.16211 C 47.620835,36.298484 47.222848,36.096178 46.802734,35.947266 46.465988,35.824891 46.114757,35.751 45.765625,35.671875 v -2.216797 z m 0.53125,3.109375 0.373047,0.0625 c 0.444404,0.07526 0.88113,0.191569 1.304688,0.345703 h 0.002 l 0.002,0.002 c 0.06286,0.02228 0.116136,0.0645 0.177734,0.08984 v 1.912109 l 0.494141,0.04687 c 1.958425,0.185033 3.79832,1.02035 5.226562,2.373047 l 0.0039,0.0039 0.0059,0.0039 c 1.28273,1.153566 2.177153,2.67587 2.5625,4.357422 l 0.09766,0.423828 h 2.658203 v 2.779297 h 0.546875 2.851563 l -7.224609,12.65039 -0.34961,0.208985 H 53.199219 36.789062 36.234375 l -7.429688,-12.84961 h 3.509766 v -2.779297 h 2.664063 l 0.101562,-0.417968 c 0.405035,-1.678697 1.298964,-3.198362 2.566406,-4.371094 1.516994,-1.288311 3.355587,-2.140129 5.320313,-2.458984 l 0.458984,-0.07422 v -1.919922 c 0.04643,-0.01993 0.08557,-0.05419 0.132813,-0.07227 l 0.0059,-0.002 c 0.386801,-0.141614 0.78626,-0.240805 1.191406,-0.314453 z"
     id="path56"
     transform="translate(-2.48 -2.45)" />
  <path
     class="cls-6"
     d="M24.13,24.1A29.53,29.53,0,0,1,71.6,32.2H18.39A29.86,29.86,0,0,1,24.13,24.1Zm0,41.73a29.54,29.54,0,0,1-6-33.07l24,41.57A29.44,29.44,0,0,1,24.13,65.83Zm23.72,8.5,24-41.57a29.5,29.5,0,0,1-24,41.57Z"
     transform="translate(-2.48 -2.45)"
     id="path58" />
  <path
     class="cls-2"
     d="M19.55,56.1h-.48V53.05a2.63,2.63,0,0,1-.45.33,2.83,2.83,0,0,1-.51.24v-.46a3,3,0,0,0,.71-.46,1.71,1.71,0,0,0,.42-.52h.31Z"
     transform="translate(-2.48 -2.45)"
     id="path60" />
  <path
     class="cls-2"
     d="M20.58,55.2l.46-.05a.78.78,0,0,0,.23.48.63.63,0,0,0,.42.14.73.73,0,0,0,.39-.1.87.87,0,0,0,.27-.27,1.57,1.57,0,0,0,.18-.46,2.25,2.25,0,0,0,.07-.58v-.1a1.1,1.1,0,0,1-.4.37,1,1,0,0,1-.54.15,1.09,1.09,0,0,1-.82-.36,1.28,1.28,0,0,1-.33-.92,1.33,1.33,0,0,1,.35-1,1.16,1.16,0,0,1,.88-.36,1.22,1.22,0,0,1,.69.21,1.26,1.26,0,0,1,.48.58,2.84,2.84,0,0,1,.17,1.1,3.49,3.49,0,0,1-.17,1.19,1.38,1.38,0,0,1-.48.68,1.26,1.26,0,0,1-.75.23,1.09,1.09,0,0,1-.75-.26A1.12,1.12,0,0,1,20.58,55.2Zm2-1.73a.92.92,0,0,0-.22-.65.68.68,0,0,0-.53-.24.7.7,0,0,0-.55.26,1,1,0,0,0-.24.67.85.85,0,0,0,.23.61.77.77,0,0,0,1.1,0A.94.94,0,0,0,22.54,53.47Z"
     transform="translate(-2.48 -2.45)"
     id="path62" />
  <path
     class="cls-2"
     d="M23.27,54.17a3.71,3.71,0,0,1,.14-1.11,1.47,1.47,0,0,1,.42-.65,1.12,1.12,0,0,1,.71-.23,1.07,1.07,0,0,1,.55.13,1.06,1.06,0,0,1,.4.36,2.07,2.07,0,0,1,.24.58,3.79,3.79,0,0,1,.09.92,3.38,3.38,0,0,1-.15,1.11,1.35,1.35,0,0,1-.42.66,1.1,1.1,0,0,1-.71.23,1.06,1.06,0,0,1-.88-.41A2.54,2.54,0,0,1,23.27,54.17Zm.49,0A2.43,2.43,0,0,0,24,55.45a.64.64,0,0,0,.55.32.65.65,0,0,0,.56-.32,3.83,3.83,0,0,0,0-2.56.67.67,0,0,0-.56-.31.61.61,0,0,0-.53.28A2.38,2.38,0,0,0,23.76,54.17Z"
     transform="translate(-2.48 -2.45)"
     id="path64" />
  <path
     class="cls-2"
     d="M28.55,55.64v.46H26a.88.88,0,0,1,.05-.33,1.93,1.93,0,0,1,.32-.52,4.69,4.69,0,0,1,.63-.59,5.79,5.79,0,0,0,.86-.83,1,1,0,0,0,.22-.58.66.66,0,0,0-.2-.48.73.73,0,0,0-.53-.19.8.8,0,0,0-.56.2.78.78,0,0,0-.21.58l-.49,0a1.19,1.19,0,0,1,.38-.84,1.32,1.32,0,0,1,.89-.29,1.24,1.24,0,0,1,.89.31,1.07,1.07,0,0,1,.33.77,1.23,1.23,0,0,1-.1.46,1.82,1.82,0,0,1-.32.48,6.83,6.83,0,0,1-.74.69,6.09,6.09,0,0,0-.55.49,2.39,2.39,0,0,0-.21.26Z"
     transform="translate(-2.48 -2.45)"
     id="path66" />
  <path
     class="cls-2"
     d="M61.65,52.86a1,1,0,0,0,0-.15v-.09s0-.12,0-.24l1.08,0h.84a.57.57,0,0,1,0-.14v-.13l0-.4.24,0,.25,0,0,.36v.31h.91l1.09,0a1,1,0,0,0,0,.15.34.34,0,0,0,0,.09s0,.1,0,.24c-.46,0-.82,0-1.09,0H64l0,.46h1.16l.5,0c0,.12,0,.22,0,.32a1.72,1.72,0,0,0,0,.2v2.29a.4.4,0,0,1-.07.26.33.33,0,0,1-.2.14l-.6.13c0-.05,0-.11,0-.15a.41.41,0,0,0,0-.17,1.34,1.34,0,0,0-.19-.31A2.75,2.75,0,0,0,65,56c.08,0,.13,0,.15,0a.33.33,0,0,0,0-.15V53.63H62.3v2.53l0,.34h-.45c0-.15,0-.26,0-.34a3.56,3.56,0,0,0,0-.37v-2a2,2,0,0,0,0-.26l0-.24.53,0h1.14l0-.46h-.83C62.46,52.82,62.1,52.83,61.65,52.86Zm1.42,2.26h.49v-.38h-.46a4.7,4.7,0,0,0-.51,0,.57.57,0,0,0,0-.12.18.18,0,0,0,0-.06.76.76,0,0,0,0-.17l.51,0h.11l0-.1a.42.42,0,0,0-.06-.14A1.2,1.2,0,0,0,63,54l-.12-.13a1,1,0,0,0,.41-.17l.37.68-.27.07h.52a2.85,2.85,0,0,0,.17-.35l.11-.22.07-.19a1.21,1.21,0,0,0,.39.2l-.14.21-.22.35h.14l.47,0a.45.45,0,0,0,0,.11.15.15,0,0,0,0,.06s0,.07,0,.18a3.77,3.77,0,0,0-.47,0h-.47v.38h.44l.68,0a.83.83,0,0,0,0,.13.2.2,0,0,0,0,.07l0,.2-.69,0h-.43v.65l0,.26h-.43c0-.12,0-.2,0-.27v-.64h-.48c-.23,0-.45,0-.66,0,0-.05,0-.1,0-.13v-.14l0-.13Q62.72,55.12,63.07,55.12Z"
     transform="translate(-2.48 -2.45)"
     id="path68" />
  <path
     class="cls-2"
     d="M66.69,55.88a3.67,3.67,0,0,0,1-.82l.08-.1a3.58,3.58,0,0,0,.38.27l-.13.1a1.88,1.88,0,0,0-.27.24,5.48,5.48,0,0,1-.43.37l-.29.24-.07.06a.6.6,0,0,0-.13-.14l-.22-.16ZM66.6,52.4l.66,0h1.43l0-.15-.19-.42a2.36,2.36,0,0,0,.54,0l.17.62h1.3l.67,0c0,.07,0,.12,0,.16s0,.07,0,.1,0,.1,0,.22l-.67,0h-3.2l-.66,0c0-.06,0-.11,0-.14v-.09S66.61,52.54,66.6,52.4Zm.7,2.35a1.79,1.79,0,0,1,0-.24c0-.07,0-.13,0-.17v-.69s0-.09,0-.23v-.19l.57,0h2l.54,0a1.57,1.57,0,0,0,0,.27.86.86,0,0,0,0,.15v.69a1.72,1.72,0,0,0,0,.26l0,.15-.32,0h-1v1.35a.43.43,0,0,1,0,.22.31.31,0,0,1-.16.13,3.09,3.09,0,0,1-.59.12,2,2,0,0,0-.1-.29l-.1-.19h.11c.23,0,.36,0,.4,0a.68.68,0,0,0,.05-.27v-1h-.8Zm.47-.38H70v-.71H67.77Zm1.79.93a1.83,1.83,0,0,0,.36-.26l1.08.83a4.55,4.55,0,0,0-.4.35l-.08-.09a5.92,5.92,0,0,0-.84-.74Z"
     transform="translate(-2.48 -2.45)"
     id="path70" />
  <path
     class="cls-1"
     d="M58.21,48.42V45.64H55.44A8.92,8.92,0,0,0,52.71,41a9.35,9.35,0,0,0-5.55-2.52V37.18h.52V37a4.57,4.57,0,0,0-1.06-.54,8,8,0,0,0-1.4-.37V34h-.45v2a7.76,7.76,0,0,0-1.4.37,4.34,4.34,0,0,0-1,.54v.21h.51v1.29A11.47,11.47,0,0,0,37.28,41a9.3,9.3,0,0,0-2.73,4.65H31.77v2.78H27.86l8.26,14.22.23-.36.2.35.24-.17H53.2l.24.17.2-.35.28-.48,8.21-13.38Z"
     transform="translate(-2.48 -2.45)"
     id="path72" />
  <path
     class="cls-2"
     d="M19.28,68.16l.16-.11a.82.82,0,0,1,.3-.11.69.69,0,0,1,.35,0,.84.84,0,0,1,.26.07l.17.09.13.11.09.1a.81.81,0,0,1,.12.18.83.83,0,0,1,.08.22A2,2,0,0,1,21,69a.71.71,0,0,1,0,.29,1.58,1.58,0,0,1-.13.26,1.1,1.1,0,0,1-.21.23.73.73,0,0,1-.33.16A1.18,1.18,0,0,1,20,70a.93.93,0,0,1-.24,0,.75.75,0,0,1-.24-.08,1,1,0,0,1-.19-.13.64.64,0,0,1-.15-.13.94.94,0,0,1-.12-.18,2.07,2.07,0,0,1-.09-.24.84.84,0,0,1,0-.32.94.94,0,0,1,.08-.32.63.63,0,0,1,.13-.23Z"
     transform="translate(-2.48 -2.45)"
     id="path74" />
  <path
     class="cls-2"
     d="M69.31,69.83a1.78,1.78,0,0,1-.14-.14,1.18,1.18,0,0,1-.16-.26.87.87,0,0,1-.07-.35,1.07,1.07,0,0,1,0-.27l.06-.19.08-.14.07-.11.16-.15.21-.13a1.34,1.34,0,0,1,.26-.08.93.93,0,0,1,.29,0l.28.08a1.35,1.35,0,0,1,.27.16,1,1,0,0,1,.22.29.9.9,0,0,1,.11.28A1,1,0,0,1,71,69a.77.77,0,0,1,0,.25.93.93,0,0,1-.08.22l-.1.17-.16.15a1.4,1.4,0,0,1-.22.14.71.71,0,0,1-.31.08,1.82,1.82,0,0,1-.33,0A1.45,1.45,0,0,1,69.5,70,1.56,1.56,0,0,1,69.31,69.83Z"
     transform="translate(-2.48 -2.45)"
     id="path76" />
  <path
     class="cls-2"
     d="M49.52,27.72a3.17,3.17,0,0,1,1.36,1,1.72,1.72,0,0,1,.48,1.08c0,.36-.11.3-.19.3a4.06,4.06,0,0,1-.82-.29c-.46-.34-.43-1.37-.88-1.78C49.38,27.9,49.39,27.7,49.52,27.72Z"
     transform="translate(-2.48 -2.45)"
     id="path78" />
  <path
     class="cls-2"
     d="M60.83,24.91a2.57,2.57,0,0,0-.38-.14,1.56,1.56,0,0,0-.62.11c-.16,0-.32,0-.48.07a1.67,1.67,0,0,1,0-.23A12.07,12.07,0,0,1,59.74,23a1.48,1.48,0,0,0,0-1.08.66.66,0,0,0-.54-.35,1.82,1.82,0,0,0-1,.39.56.56,0,0,0-.19.2c-.11.13-.05.17.13.13s.34-.15.53-.21a.6.6,0,0,1,.25,0,.4.4,0,0,1,.19.15,1.39,1.39,0,0,1,.13.55c0,.16,0,.3-.12.36a3,3,0,0,1-.53.06s-.27.15-.38.14-.07-.19-.18-.34a.19.19,0,0,0-.18-.09,3.47,3.47,0,0,1,.13-.46c0-.1-.05-.1-.05-.1a3.36,3.36,0,0,0-.42.4.32.32,0,0,1-.17,0,1.85,1.85,0,0,1,0-.41c0-.32.1-.69.1-.69l.31-.21.36-.2c.13-.12.4-.07.54-.14s.09-.27.13-.41a.25.25,0,0,0-.32-.13c-.3.11-.62.45-.76.41s-.07-.24-.13-.37-.18-.09-.26-.13-.16.06-.16.06A14.65,14.65,0,0,0,57,22.94c0,.07.1.22.15.22a.54.54,0,0,0,.15,0,1,1,0,0,1,.25.07,2.62,2.62,0,0,1,.11.69,2,2,0,0,1-.29.73s-.18,0-.19-.12,0-.53,0-.72,0-.36,0-.46-.08,0-.08,0a3.47,3.47,0,0,0-.07.76c0,.28-.06.51-.06.51,0,.17.06.61.07.68l-.22.09-.2,0c-.13-1.14-.17-2.15-.33-3.14h-.13l-.22.21c0,.1-.11.85-.11.85A15.29,15.29,0,0,0,56.05,25s0,.46,0,.46l-.1,0h-.09l-.2-.08a8.22,8.22,0,0,0-.29-2c0-.09-.27-.43-.41-.47s-.14.2-.14.2c0,.23.1.3.14.55.08.61.14,1.27.19,1.82,0,.07.08.11.09.18a3.7,3.7,0,0,1,.48.09,1.51,1.51,0,0,0,.33.13.62.62,0,0,0,.29-.06l.16-.19a1.49,1.49,0,0,1,.57-.07.37.37,0,0,0,.31.15c.08,0,.17-.19.34-.3a.89.89,0,0,1,.39-.1c.14,0,.28.09.44.13a3,3,0,0,0,.47.05c.24,0,.22-.16.31-.21a1.54,1.54,0,0,1,.64-.12c1-.06-1.7,1.49-.8,1.34a1.83,1.83,0,0,0,.73-.29,3.89,3.89,0,0,0,.61-.37c.09-.05.29-.07.41-.14s0-.14.1-.24a2.6,2.6,0,0,0,.19-.32C61.21,25,61,25,60.83,24.91Zm-2-.14c0,.11,0,.24-.1.26l-.22,0a1.62,1.62,0,0,1-.42,0,.28.28,0,0,1-.21-.25,2.1,2.1,0,0,1,.14-.67c0-.14,0-.27,0-.45l.07-.09h.11l.08.09c.07.24-.05.52,0,.75s.21.05.43.12C58.86,24.53,58.94,24.66,58.86,24.77Zm.2-.77c0,.1,0,.2,0,.21s-.21.09-.25,0a.75.75,0,0,1,0-.35c0-.08,0-.15,0-.22a.33.33,0,0,1,.12-.2l.23-.05a.53.53,0,0,1,.08.17C59.23,23.7,59.1,23.86,59.06,24Z"
     transform="translate(-2.48 -2.45)"
     id="path80" />
  <path
     class="cls-2"
     d="M60.38,29.53c-.06-.12-.32-.28-.4-.42a.42.42,0,0,0-.41-.13,2.9,2.9,0,0,1-.67,0,.61.61,0,0,1-.27,0,.68.68,0,0,0-.24-.62.42.42,0,0,0-.25,0,.31.31,0,0,1-.18,0l0-.17a5,5,0,0,1,.68-.89s.25-.16.28-.2,0-.26,0-.41a3.84,3.84,0,0,1-.58,0,1.36,1.36,0,0,0-.52-.07c-.19,0-.36.34-.64.45l0,0-.28.22a.14.14,0,0,0,.16.15c.16,0,.49-.11.7-.14a.36.36,0,0,1,.24.05,5.29,5.29,0,0,1-.31.63c-.08.13-.18.16-.19.29s.14.24.2.39a.77.77,0,0,1,.11.31l-.1,0c-.18.06-.44,0-.65.09a1.13,1.13,0,0,0-.78.68,1.29,1.29,0,0,0,0,.65,1.19,1.19,0,0,0,.31.5,1.12,1.12,0,0,0,.38.13,1.85,1.85,0,0,0,.56,0c.62-.17,1-.85,1.17-1.63H59a1.73,1.73,0,0,1,.76.12c.18,0,.35.28.64.28A.39.39,0,0,0,60.38,29.53Zm-3,1.28a.56.56,0,0,1-.67-.16c-.29-.37-.22-.59-.22-.59a.61.61,0,0,1,.39-.48,1.37,1.37,0,0,1,.61-.16c.16,0,.42-.06.49.1A1.23,1.23,0,0,1,57.34,30.81Z"
     transform="translate(-2.48 -2.45)"
     id="path82" />
  <path
     class="cls-2"
     d="M36.42,26.2s.13-.08.22.06.23.35.28.38a5.92,5.92,0,0,0,.14,2.12S37,29,37,29s0,.17-.21.1l-.23-.29C35.77,28.15,36.38,27.31,36.42,26.2Z"
     transform="translate(-2.48 -2.45)"
     id="path84" />
  <path
     class="cls-2"
     d="M53.8,25.72s.12-.2.19-.14a1.28,1.28,0,0,1,.26.4c.26,1-.37,1.31-.79,1.64,0,0-.35.1-.28-.41C53.24,26.88,53.71,26.4,53.8,25.72Z"
     transform="translate(-2.48 -2.45)"
     id="path86" />
  <path
     class="cls-2"
     d="M45.24,25.42a.3.3,0,0,1,.24,0s0,.08.06.12.11.12.11.16-.1,0-.19,0C45.2,25.72,45.06,25.44,45.24,25.42Z"
     transform="translate(-2.48 -2.45)"
     id="path88" />
  <path
     class="cls-2"
     d="M34.31,24.6a3.17,3.17,0,0,1-.16-.44.48.48,0,0,0-.59-.38,20.77,20.77,0,0,1-2.27.42v-.43a1.66,1.66,0,0,0,.6-.33.54.54,0,0,0-.05-.37c-.07-.1-.26-.09-.29-.18a8.77,8.77,0,0,1-.09-1.44c-.12-.39-.58-.42-.78-.45-.52-.1-.71.23-.56.6a1.52,1.52,0,0,0,.19.33l0,1-.38.09a3.31,3.31,0,0,0-.8.22.37.37,0,0,0,0,.29.58.58,0,0,0,.3.17,4.56,4.56,0,0,0,.87.06v.58a13.92,13.92,0,0,0-1.86.34c0,.57,1.85.29,1.85.29v.58s-1,.25-1.51.32c0,0-.62-.34-.72-.35-.35,0-.31.17-.31.17.21.53.43,1.05.61,1.67a1,1,0,0,0,.5.07,5.71,5.71,0,0,0,.74-.18,6.63,6.63,0,0,1,.67-.09v.5a3.78,3.78,0,0,0-.54.46,8.31,8.31,0,0,1-1.61,1.53c-.07.06-.28.23-.22.29a2.27,2.27,0,0,0,.59-.07,2.77,2.77,0,0,0,.78-.49c.29-.23.72-.86,1-1.07l0,.51c0,.86,0,1.33,0,1.35s-.43,0-1,0l0,.18a7.58,7.58,0,0,0,.86.48l.14.22A.52.52,0,0,0,30.9,31c0-.34-.07-2.86,0-3s.39-.66.41-.68a3.62,3.62,0,0,1,.58-.41c.15-.08.59-.61.92-.89s.92-.71,1.39-1.05c0,0,.06-.08.1-.1A1,1,0,0,0,34.31,24.6Zm-4,2.2-.61.11a4,4,0,0,1-.67.1s-.11-.36-.12-.42-.05-.23.07-.32a1.39,1.39,0,0,1,.69-.16l.64,0ZM32,26.21c-.3.15-.85.4-.8.3v-.58a4.53,4.53,0,0,0,.7-.11s.11-.15.07-.29a.4.4,0,0,0-.16-.18,1.79,1.79,0,0,0-.66,0s0-.46,0-.55a5.1,5.1,0,0,1,1.27-.3c.25,0,.71,0,.74.07C33.19,25,32.09,26.14,32,26.21Z"
     transform="translate(-2.48 -2.45)"
     id="path90" />
  <path
     class="cls-2"
     d="M38.86,22.28s.11-.16.2-.15a1.27,1.27,0,0,1,.53.32.47.47,0,0,1-.09.25,3.31,3.31,0,0,0,0,.52,5.17,5.17,0,0,0,.75-.1c.2-.07.35-.15.61-.23,0,0,.12.05.12.15s-.12.23-.12.25a10.91,10.91,0,0,1-1.48.49s-.34,1.09-.65,1.86a8.38,8.38,0,0,1-.43.74c0,.07.06.11,0,.13l.44-.15c.09,0,.43-.27.46-.26s-.35.54-.57.75a.47.47,0,0,0,0,.28,1.56,1.56,0,0,0,.44-.06s.11-.26.13-.29.52-.41.57-.57-.15-.54-.15-.54v-.2l.15-.14L40,25.2c.13,0,.48-.05.83-.09L42,25a6.31,6.31,0,0,1,.62-.13.66.66,0,0,1,.52.11,1.88,1.88,0,0,1,.13.34c0,.22,0,.51,0,.7s.15.16.15.26-.17.38-.24.59,0,.42-.08.65-.77,2.08-.9,2.29a.56.56,0,0,1-.36.29l-.26,0c-.16-.29-.09-.16-.32-.35a9.51,9.51,0,0,0-.71-.71s.1-.11.17-.11l.94,0a.38.38,0,0,0,.2-.17,8.26,8.26,0,0,0,.67-2,6.08,6.08,0,0,0,0-1.19s-.07-.12-.13-.12a2.31,2.31,0,0,0-.29,0,17.53,17.53,0,0,0-1.84.12,2,2,0,0,0,0,.5c-.17.15-.66.36-.73.58v.28c.32-.06.61-.24.83-.25s.15.11.15.11a1.51,1.51,0,0,1-.22.11l-.62.27v.61a1.22,1.22,0,0,1,.58-.09c.3.08.12.21,0,.3l-.59.28s0,.45-.09.89-.16.73-.2,1-.22.25-.34.29a1.06,1.06,0,0,1-.37.08.18.18,0,0,1-.11,0s-.08,0,.05-.22a3,3,0,0,1,.32-.32c0-.23.09-.45.11-.69a5.88,5.88,0,0,0,0-.67l-.77.13H38a1.57,1.57,0,0,0-.12-.19,1.64,1.64,0,0,0,.23,0l.31-.09.75-.4,0-.5a5.09,5.09,0,0,0-.84.34L38,27.63c-.11-.29.1-.47-.09-.78-.05-.06-.38-.24-.47-.35a4.28,4.28,0,0,0,1.32-2.69,4.62,4.62,0,0,1-.65,0,5.14,5.14,0,0,1-.55-.06s-.17-.26-.15-.35.23-.09.23-.09a7.48,7.48,0,0,0,1,0l.17-.1C38.91,22.91,38.85,22.4,38.86,22.28Z"
     transform="translate(-2.48 -2.45)"
     id="path92" />
  <path
     class="cls-2"
     d="M47.83,22.13s0-.19.08-.19a.58.58,0,0,1,.26.09.65.65,0,0,1,.09.1c0,1,0,2.31,0,3.17a.17.17,0,0,0,.13.15,3.49,3.49,0,0,0,.46-.09c.19,0,.39-.13.58-.16a2.33,2.33,0,0,0,.89-.29c.17-.09.29-.37.45-.47s.37.29.41.38a1.69,1.69,0,0,1,.16.47.34.34,0,0,1-.17.29,5.17,5.17,0,0,1-.55.07l-.39.16c-.65.17-1.1.4-1.65.54-.21,0-.41,0-.6.09a9.29,9.29,0,0,1-.47,2.4c-.32.67-.67.67-1.67.67l-.44,0,0-.15.07-.15a3.82,3.82,0,0,0,1.31-1,4.39,4.39,0,0,0,.63-1.65.57.57,0,0,0,0-.19,6,6,0,0,1-1-.3,1.83,1.83,0,0,1-.58-.47s.07-.1.13-.1.23,0,.36,0c.49,0,1,0,1.2,0a.19.19,0,0,0,.12-.05s0-.87.08-1.54C47.79,23.49,47.83,22.13,47.83,22.13Z"
     transform="translate(-2.48 -2.45)"
     id="path94" />
  <polygon
     class="cls-2"
     points="29.38 26.26 29.39 26.11 29.5 26.07 31.08 26.48 31.56 26.68 31.75 27.01 31.7 27.3 31.52 27.44 31.45 27.59 31.37 27.87 31.19 27.9 30.93 27.74 30.82 27.44 30.72 27.07 30.49 26.85 29.98 26.63 29.55 26.41 29.38 26.26"
     id="polygon96" />
  <path
     class="cls-2"
     d="M34,75.83c.07.06.07.08,0,.17l.07,0c0,.27.19.35,0,.68,0,0,0,0-.08,0s0,0-.05,0-.14,0-.25,0l-.09,0-.19-.08s0,0,0,0,0,0,0,0l-.2-.14a.13.13,0,0,0,0-.06L33,76.35l0,0,0,0a.67.67,0,0,1,.07-.11s0,0,0,0l.12-.1,0,0a1.16,1.16,0,0,1,.15-.21s0,0,0,0l.06-.11h0a.19.19,0,0,1,.11-.15c.06-.06.07-.06.14,0a1.11,1.11,0,0,1,.33.16v.06l.11.06a0,0,0,0,1,0,0S34,75.78,34,75.83Z"
     transform="translate(-2.48 -2.45)"
     id="path98" />
  <path
     class="cls-2"
     d="M31.59,75.67a2.56,2.56,0,0,0-.11.24.47.47,0,0,1-.12,0l-.09.12h-.06a.41.41,0,0,0-.07.11h0l0,.06h0l0,0h0l0,0h0s0,.07,0,.1l0,0-.09.11-.1,0c-.08.08-.13,0-.24,0s0,0-.07-.1a.13.13,0,0,1,0-.06l-.07,0s0,0,0,0,0,0,0-.06a.19.19,0,0,1-.09,0s0,0,0,0a1.8,1.8,0,0,1-.17-.34.36.36,0,0,0,.05-.09.45.45,0,0,1,.1-.27h0l0,0h0a.41.41,0,0,0,.05-.09s.07,0,.09,0l0,0s0,0,.07,0,0,0,0,.05l.06.06a.25.25,0,0,0,0,.07l.09,0v.06l.12.1v0l.07,0s0,0,0,0l.2.08s0,0,0,0l0,0s0,0,0,0l.06,0,.09,0a.42.42,0,0,1,.21.06S31.55,75.64,31.59,75.67Z"
     transform="translate(-2.48 -2.45)"
     id="path100" />
  <path
     class="cls-2"
     d="M28.86,75.52l0,0,0,.09s.05,0,0,.09h0l-.09.09h-.06a.64.64,0,0,1-.1.13l0,0,0,0,0,0,0,0h0a.21.21,0,0,0,0,.06s0,0,0,0l0,0a0,0,0,0,1,0,0,.75.75,0,0,1-.07.12l0,0-.12.21s0,0,0,0,0,0,0,0H28c-.07,0-.11.17-.14.25a.74.74,0,0,0,.32.16l0,0,.05,0a0,0,0,0,1,0,0,.83.83,0,0,0,.16.09,0,0,0,0,0,0,0l.07,0s0,0,0,0l.07,0s0,0,0,0l.17.06s0,0,0,0l.23.13s0,0,0,0,0,0,.06,0,0,0,0,0l.14.08s0,0,0,0l.29.17,0,0,.2.11.06,0,.22.12s0,0,0,0l.11.07,0,0,0,0,0,0,.16.09s0,0,0,0l.1,0s0,0,0,0l.13,0s0,0,0,0a.24.24,0,0,1,.14,0l.09-.1,0,0c.15-.09.2-.11.41,0,0,.07.13.1.18.16s0,0,0,0l.05,0v.06l0,0s0,0,0,0l.12.1s0,.06,0,.09l.06,0s0,0,0,0,0,0,.08.08,0,.11,0,.2h0l-.13.28-.23,0a2.35,2.35,0,0,1-.68-.33l0,0c-.06,0-.09,0-.12,0v0a3.31,3.31,0,0,0-.8-.43l-.31-.19,0,0-.07,0a0,0,0,0,0,0,0l-.12-.07a0,0,0,0,1,0,0,.39.39,0,0,0-.11-.06h0l-.25-.14s0,0-.08,0a.06.06,0,0,0-.05-.06l0,0-.09,0v0l-.09,0,0,0-.1,0s0,0,0,0l-.11-.06,0,0-.17-.07s0,0,0,0l-.07,0a0,0,0,0,1,0,0l-.11-.06s0,0-.05,0l-.15-.06-.12.05-.16-.09-.23,0a.18.18,0,0,1-.07,0l-.11-.06s0,0,0,0a1.46,1.46,0,0,1-.26-.18s0,0,0-.08h0l0,0a.11.11,0,0,1,0,0l0-.1h0A.94.94,0,0,0,27,76.6l0,0a.4.4,0,0,1,.13-.19h.07a.41.41,0,0,1,.05-.09h0l0-.05h.09l.06-.11s0,0,0,0l.17-.23h.06c.07,0,.08-.08.15-.15l0,0s0,0,0,0h0l.26-.4.19-.18s0,0,0,0l.15-.36c-.09-.08-.05-.13,0-.26l0,0,.06-.06a.37.37,0,0,1,.16.09s0,0,0,.06l.09.06v0l.14.11v.06L29,75a.22.22,0,0,0,0,.08.17.17,0,0,1,0,.05.05.05,0,0,1,0,0A.6.6,0,0,1,28.86,75.52Z"
     transform="translate(-2.48 -2.45)"
     id="path102" />
  <path
     class="cls-2"
     d="m 49.567267,74.034979 v 0 a 0.25,0.25 0 0 1 0.12,0.09 h 0.08 c 0,0 0,0 0,0.07 0,0.07 0,0.07 0,0.2 l -0.07,0.05 v 0 h -0.01 -0.15 a 0.14,0.14 0 0 0 0,0.06 v 0 c 0,0 0,0 0,0 h -0.09 c 0,0 0,0 0,0 h -0.3 c 0,0 0,0 0,0 h -0.16 c 0,0 0,0 0,0 h -0.12 v 0 h -0.18 c 0,0 0,0 0,0 v 0 0 h -0.15 v 0 l -0.39,0.06 a 1,1 0 0 0 -0.2,0 v 0.3 c 0,0 0,0 0,0 0,0 0,0.13 0,0.15 0,0.05 0,0.09 0,0.13 v 0 c 0,0 0,0 0,0 h -0.08 c -0.09,0 -0.17,0.08 -0.18,0.17 l -0.22,0.1 c 0,0.1 -0.07,0.13 -0.19,0.14 -0.12,0.01 0,0.05 -0.07,0.08 -0.07,0.03 -0.05,0 -0.12,0.07 -0.07,0.07 0,0 0,0 h -0.07 c 0,0.07 0,0.06 -0.07,0.08 v 0 h -0.12 v 0 0 a 0.2,0.2 0 0 1 -0.1,0 c 0,0.14 -0.06,0.17 -0.07,0.31 h 0.23 v 0 h 0.14 c 0,0 0,0 0,0 a 1.32,1.32 0 0 1 0.65,-0.06 v 0.08 h -0.1 a 0.19,0.19 0 0 1 0,0.08 h -0.14 a 0.14,0.14 0 0 0 0,0.06 h -0.1 v 0 h -0.18 -0.12 v 0 h -0.1 c 0,0 0,0 0,0 h -0.15 v 0 0 0 h -0.3 c 0,0 0,0 0,0 v 0 a 0.25,0.25 0 0 0 0,0.07 h -0.05 v 0 h -0.1 v 0 h -0.09 -0.14 v 0 l -0.4,0.06 v 0 0 -0.07 l -0.11,-0.07 a 0.66,0.66 0 0 1 0,-0.15 v 0 c 0,0 0,0 0,-0.08 0,-0.08 0,0 0,0 0,0 0,0 0,0 v 0 -0.25 a 0.21,0.21 0 0 0 0.09,-0.13 c 0.22,0 0.62,-0.22 0.64,-0.39 0.02,-0.17 0.06,-0.07 0.19,-0.09 0.13,-0.02 0,-0.06 0.07,-0.09 0.07,-0.03 0,0 0,0 0,0 0,0 0.06,-0.09 v 0 c 0,0 0,0 0.1,0 0.1,0 0,-0.06 0,-0.12 h 0.1 a 0.56,0.56 0 0 1 0.05,-0.08 c 0,0 0.1,0 0.12,-0.06 a 0.22,0.22 0 0 1 0,-0.08 c 0,-0.08 0.09,0 0.08,-0.16 0,0 0,0 0,0 v -0.07 h -0.07 v 0 0 0 h -0.07 c 0,0 0,0 0,0 v 0 0 h -0.17 c 0,0 0,0 0,0 a 0.46,0.46 0 0 0 -0.17,0 c 0,0 0,0 0,0 h -0.08 a 0.06,0.06 0 0 1 -0.07,0 c 0,0 0,0 0,0 h -0.48 -0.06 c 0,0 0,0 0,0 v 0 0 h -0.08 c 0,0 0,0 0,0 a 0.15,0.15 0 0 0 -0.1,0 0.11,0.11 0 0 1 0,-0.05 0.2,0.2 0 0 0 -0.08,0 c 0,0 0,0 0,0 v 0 c 0,0 0,-0.12 0,-0.19 h 0.08 c 0,0 0,0 0,-0.07 l 0.62,-0.09 v 0 h 0.13 v 0 h 0.22 v 0 l 0.35,-0.06 c 0,0 0,0 0,0 v 0 c 0,0 0,0 0,-0.06 a 1.08,1.08 0 0 1 0.39,-0.08 v 0 c 0.14,0 0.25,0 0.44,0 0,0 0,0 0,-0.06 a 0.82,0.82 0 0 1 0.29,-0.17 h 0.17 v 0 l 0.27,-0.08 v 0 h 0.07 v 0 h 0.07 v 0 h -0.08 v 0 h 0.3 a 1.92,1.92 0 0 1 0.58,0.54 z"
     id="path104" />
  <path
     class="cls-2"
     d="M52.46,78.23s0,0,0,0,.06,0,.09.07,0,.3,0,.37a.11.11,0,0,1-.07,0,.3.3,0,0,1-.22,0l0,0h-.08c0-.06,0-.05-.08-.07s0,0,0,0l-.3-.07,0-.1-.23,0,0,0h0v0l-.15,0s0,0,0,0h0a0,0,0,0,0,0,0l-.2,0a.08.08,0,0,1,0-.05l-.18,0v0h0s0-.08,0-.13a1,1,0,0,0,.17-.12s0,0,0,0a.22.22,0,0,0,.05-.08h.2v0h0s0,0,0,0l.25,0v0h.1s0,0,0,0h.09s0,0,0,0l.32,0,0,0h.12l0,0h0s0,.07,0,.1h0A.14.14,0,0,0,52.46,78.23Z"
     transform="translate(-2.48 -2.45)"
     id="path106" />
  <path
     class="cls-2"
     d="M50.91,79.51h0a.52.52,0,0,0,.08.28s0,0,.06.09l.07,0v0h.15a0,0,0,0,0,0,0h.11a.43.43,0,0,0,0-.05l.25,0a0,0,0,0,0,0,0h0a.14.14,0,0,1,0-.06h.17s0,0,0,0H52l0,0h.08s0,0,0,0h.05a0,0,0,0,0,0,0c.09.07,0,0,0,.1l.06,0s0,.08,0,.12,0,.06,0,.11h0a.13.13,0,0,1,0,0c-.06.06-.06,0-.09.09a1.42,1.42,0,0,0-.48.14l-.27,0v0a.69.69,0,0,1-.19.1.25.25,0,0,0,0,.07h0s0,.08,0,.13h0c0,.11,0,.22,0,.33l0,0a1.18,1.18,0,0,0-.09.38h0s0,.22,0,.29a.54.54,0,0,0,.33,0,0,0,0,0,0,0,0h.15v0h.15s0,0,0,0h0v0l.15,0a0,0,0,0,0,0,0h.13s0,0,0,0h.13s0,0,0,0l.79,0v0l.16,0v0l.08,0v0c.08,0,.1,0,.14.12h0c0,.05,0,.11,0,.17h0v.05A.14.14,0,0,1,53,82a.49.49,0,0,1-.36.11v0h-.08v0l-.23,0v0h-.2v0h-.09a2.59,2.59,0,0,0-.67.05s0,0,0,0a.06.06,0,0,1-.06,0h0v0h-.1s0,0,0,0l-.77.07a0,0,0,0,0,0,0h-.06a0,0,0,0,1,0,0h-.17a.14.14,0,0,0,0,.06l-.1,0s0,0,0,0l-.1,0a.43.43,0,0,1,0,0l-.25,0v0h-.12v0h-.05v0l-.12,0v0a.19.19,0,0,1-.1,0s0,0,0,0l-.27,0s0,0,0,0h-.05s0,0,0,0l-.15,0v0a3.58,3.58,0,0,1-.45,0s-.05,0-.08-.12h0v0h-.1a.57.57,0,0,1-.11-.11h0a0,0,0,0,0,0,0h0a.41.41,0,0,0,0-.11h0c0-.06,0-.1,0-.16h0v0l.15,0v0a1.14,1.14,0,0,0,.11-.11h.15l.06.07h.15v0h.05v0h.23v0h0v0H49v0l.28,0a0,0,0,0,1,0,0h.08a0,0,0,0,1,0,0l.29,0s0,0,0,0h.05v0l.35-.08a.36.36,0,0,1,0-.1l0,0h.07a5.33,5.33,0,0,1-.07-.76l-.11,0v0H49.9v0l-.27.07s0,0,0,.06l-.58,0L49,81c-.14,0-.18,0-.3,0s-.12-.12-.15-.24a.35.35,0,0,0,.11-.13.74.74,0,0,0,.39-.07l.08,0,0,0,.2,0s0,0,0-.05l.27,0s0,0,0,0,0,0,0,0a.14.14,0,0,1,0-.06h0a0,0,0,0,0,0,0l.23,0v0h.05s0,0,0,0,.05,0,.1-.06h0c0-.06,0-.1,0-.15h0V80h0V79.7h0v-.13h0v-.32s0,0,.09-.06a.28.28,0,0,1,.22-.07s0,0,0,0,0,0,.06,0l0,0,.14.07C50.83,79.36,50.88,79.38,50.91,79.51Z"
     transform="translate(-2.48 -2.45)"
     id="path108" />
  <path
     class="cls-2"
     d="M58.11,73.72l.18,0a.31.31,0,0,0,.12.09h0a.8.8,0,0,1,.17.36h0a.05.05,0,0,0,0,0h0a.36.36,0,0,0,0,.15l0,0c0,.08-.07.09-.06.18a.33.33,0,0,0-.17.07s0,0,0,0l-.18.06a.09.09,0,0,0,0,0l-.06,0v0s0,.06,0,.11S58,75,58,75l-.14.06s0,0,0,0-.08-.05-.13-.11h0a.28.28,0,0,1,0-.17h0a.36.36,0,0,0,0-.09l.08-.08a.41.41,0,0,1,0-.11s0,0,0,0,0,0,0,0h0s0,0,0,0,0,0,0,0h0a1.8,1.8,0,0,1-.08-.21h0s0,0,0-.05h0a.59.59,0,0,0-.06-.14s0,0,0,0h0v0h0l0-.09h0l-.07-.13a.34.34,0,0,0,0-.1l.06,0c.09-.08.16-.07.27-.09S58,73.61,58.11,73.72Z"
     transform="translate(-2.48 -2.45)"
     id="path110" />
  <path
     class="cls-2"
     d="M56.66,74.78l.13.19h0s0,0,0,0h0a.58.58,0,0,0,0,.14h0a.14.14,0,0,0,0,.07h0a.09.09,0,0,1,0,0l0,0c0,.09,0,.15-.07.22s-.07.05-.15.11a0,0,0,0,1,0,0l-.11.07a.3.3,0,0,0-.25,0l-.29-.39h-.08a1,1,0,0,1-.09-.18.33.33,0,0,1,.2-.08l.08.06.1,0,0,0,.18-.08v0l.1-.07s0,0,0,0l.05,0v0l.06-.05v0Z"
     transform="translate(-2.48 -2.45)"
     id="path112" />
  <path
     class="cls-2"
     d="M58.52,75c0,.07,0,.07.13.06a.47.47,0,0,1,.05.27c0,.1,0,.14-.12.18s0,0,0,0l-.25.07s0,0,0,0l-.07,0a0,0,0,0,0,0,0l-.14.06s0,.08,0,.11-.27,0-.26.16.05.13.09.21l.15,0c0-.1.17,0,.25-.1s.15-.17.33-.24.08.06.16,0a.43.43,0,0,0,0,0h0v0h0l0,.1-.06,0a.41.41,0,0,0,0,.11l-.09.06v0l-.16.06s0,0,0,0l-.29.14s0,0,0,.06l-.14.08v0l-.05,0s0,0,0,0,0,0-.08.06a.32.32,0,0,1,0,.13h0s.05,0,.06.08h0a.28.28,0,0,0,0,.17h.05s0,0,0,0h0a.62.62,0,0,1,.07.19.83.83,0,0,0-.11.15l-.05,0a.29.29,0,0,0,0,.09l-.06,0a.43.43,0,0,1,0,0l-.07,0s0,0,0,0a0,0,0,0,1,0,0l-.25.11,0,0h0v0s0,0,0,.06l-.06,0,0,0-.08,0v.06l-.21.11s0,0,0,0l-.05,0s0,0,0,0l0,0v.06l-.07,0s0,0,0,0l-.11.07s0,0,0,0H57a0,0,0,0,1,0,0l0,.05v.08h-.13s0,0,0,0a.15.15,0,0,1-.19-.06l-.09,0a.15.15,0,0,1,0-.06c-.07,0-.08-.14-.08-.2a.29.29,0,0,1,.1-.07v0l.3-.07s0,0,0,0a.15.15,0,0,0,.13,0,0,0,0,0,1,0,0l.05,0v0c.08-.08.14,0,.21-.09a0,0,0,0,1,0,0l.09,0v0l0,0v0l.26-.1a.61.61,0,0,1-.05-.12l.05,0,0-.26-.08-.12h-.1a.09.09,0,0,0,0,0l-.29.09s0,.06,0,.09h0s0,0,0,0l-.46.19s0,0-.08-.08l-.05,0a.69.69,0,0,0,0-.1c.05,0,0-.09.1-.14v0a.89.89,0,0,0,.32-.14v-.05l0,0s0,0,0,0l.12,0a0,0,0,0,0,0,0l.07,0v0l.11,0s0,0,0,0l.05,0a0,0,0,0,1,0,0l.17-.16c0-.06,0-.06,0-.1s-.07-.06-.12-.12a.56.56,0,0,0-.22,0l0,0-.13.08v0l-.13,0s0,0,0,0l-.05,0a.07.07,0,0,1,0,0l-.1.08a0,0,0,0,0,0,0l-.21.08c-.07-.05,0,0-.09,0l0-.06h-.06v0l0,0s-.09-.09-.11-.14a.42.42,0,0,1,.19-.13,0,0,0,0,0,0,0l.34-.17v0l0,0s0,0,0,0l.12-.05s0,0,0,0l0,0a0,0,0,0,0,0,0l.12-.05v0l.07,0v0l.14-.06v0l.09,0v0l.11-.07a0,0,0,0,0,0,0s0,0,0-.06l.1-.07a0,0,0,0,0,0,0l.15-.09v0l.06,0a.11.11,0,0,0,0-.05l.2-.11a.13.13,0,0,1,0-.06l0,0a.22.22,0,0,0,0-.08l.08,0v-.06l.07,0s0,0,0,0l.19-.07v0l.1-.07a0,0,0,0,1,0,0A.71.71,0,0,0,58.52,75Z"
     transform="translate(-2.48 -2.45)"
     id="path114" />
  <path
     class="cls-2"
     d="M59.62,76.28l.05,0a1.23,1.23,0,0,1,.1.2c-.05.08,0,.13-.08.2a0,0,0,0,0,0,0l-.14.06v0l0,0v0l-.18.07s0,0,0,0l-.17,0v0l-.06,0a0,0,0,0,0,0,0h0s0,0,0,0l-.15.06v0h0a.61.61,0,0,0,0,.12l0,0c.1,0,.12,0,.2,0a.84.84,0,0,1,.14.22l-.06.05.08.13,0,0,0,.05h0a.16.16,0,0,1,0,.07h0s0,0,0,0l-.07,0v0l-.05,0a0,0,0,0,0,0,0l-.07,0,0,.13-.17.06v.05l-.09,0a0,0,0,0,0,0,0c-.05.08,0,.11-.12.16a.48.48,0,0,1-.11-.2l.07,0a.16.16,0,0,1,0-.06l-.06-.12s0,0,.05,0,0,0,0-.08,0,0,0,0l0,0c0-.06,0,0,0-.09s0-.09,0-.16l0,0c0-.09,0-.11,0-.22l0,0a.64.64,0,0,0,0-.07h0l-.06-.06-.22,0v0l-.07,0a.28.28,0,0,1-.12-.17l.08-.06s0,0,0,0l.09,0a.29.29,0,0,0,0-.09l.07,0a0,0,0,0,0,0,0l.11,0v0l.07,0a0,0,0,0,0,0,0s0,0,.06,0l.11-.11s0,0,0,0l.12-.11a.43.43,0,0,0,0,0l.08-.06s0,0,0,0l.27-.13a0,0,0,0,1,0,0l.08-.06a0,0,0,0,1,0,0l.07,0s0,0,0,0S59.59,76.24,59.62,76.28Z"
     transform="translate(-2.48 -2.45)"
     id="path116" />
  <path
     class="cls-2"
     d="M61.16,76.72l0,0,0,0,.07,0a.8.8,0,0,0,.19.13l0,.13h0l.05.11h0c0,.08-.07.06-.07.16l-.28.15,0,0-.06,0,0,0-.11,0s0,0,0,0-.15,0-.29.09a.43.43,0,0,1,0,0,4.36,4.36,0,0,0-.86.29.35.35,0,0,1-.07-.11c.06,0,0,0,.09-.06s-.07,0-.07-.08h0s0,0,0,0l.14,0s0,0,0,0l.07,0s0,0,0,0l.16-.06v-.06a.9.9,0,0,1,.37-.23s0,0,0,0a.57.57,0,0,0,.25,0,0,0,0,0,0,0,0l.09,0v0l0,0a0,0,0,0,0,0,0l.12,0a0,0,0,0,1,0,0,.33.33,0,0,1,.25,0S61.13,76.67,61.16,76.72Z"
     transform="translate(-2.48 -2.45)"
     id="path118" />
  <path
     class="cls-2"
     d="M57.28,79.28a.64.64,0,0,0,0,.07,1.16,1.16,0,0,0-.06.16l-.23.1s0,0,0,0l-.17,0a0,0,0,0,0,0,0l-.09,0,0,0h0v0l0,0s0,0,0,0l-.14,0s0,0,0,0l0,0a0,0,0,0,0,0,0l-.09,0s0,.06,0,.09l-.28.11v.06l-.21.08a.83.83,0,0,0,0,.15l-.11.07a.13.13,0,0,0,0,.06l-.06,0s0,0,0,0l-.06,0a.11.11,0,0,0,0,0l-.41.19s0,0,0,0l-.11.07v0l-.08,0s0,0,0,0l-.05,0-.17-.09h-.08l0,0h0a.36.36,0,0,0,0-.09c.07-.09.17-.3.39-.31a1.13,1.13,0,0,0,.31,0,.51.51,0,0,1,.07-.17h0a.13.13,0,0,0,0-.06l.23-.09a.28.28,0,0,0,.32-.07l.09,0v0h0s0,0,0,0l.17-.07a.29.29,0,0,1,0-.09l0,0v0l.05,0v0l.24-.07a.13.13,0,0,1,0-.06l.09,0a0,0,0,0,1,0,0,.74.74,0,0,1,.17-.12s0,0,0-.08L57,79c0-.06,0,0,0-.06a.36.36,0,0,1,.1-.15l.11,0s0,0,0,0l.3-.17h.06v0l.34-.16h.19a.45.45,0,0,1,.06.09h0l0,.06h0v.06l0,0a.53.53,0,0,0,0,.12l-.09.06a.29.29,0,0,1,0,.09l0,0a.07.07,0,0,0,0,.05s0,0,0,0l0,0-.41.14v0C57.36,79.18,57.33,79.24,57.28,79.28Z"
     transform="translate(-2.48 -2.45)"
     id="path120" />
  <path
     class="cls-2"
     d="M60.05,78.31s0,0,0,0l.07,0s0,0,0,0a.51.51,0,0,1,.3.07h0a.77.77,0,0,0,.07.16c-.06.1,0,0,0,.14h0a.34.34,0,0,1,0,.1h0l0,.09h0s0,0,0,0,0,0-.06.07a0,0,0,0,0,0,0l-.11.07a.6.6,0,0,1,0,.19.69.69,0,0,0,0,.1h0a.66.66,0,0,0,0,.23l0,0a.78.78,0,0,0,0,.14s0,0,0,0v0l-.18.1a.43.43,0,0,1,0,0l-.2.08a0,0,0,0,0,0,0l-.35.14a1.19,1.19,0,0,1-.32.15v0h0l-.19.07s0,0,0,0c-.16,0-.29.2-.4.27a.17.17,0,0,1,0,0l-.05,0s-.06-.08-.09-.1l-.09,0,0-.06c-.06-.07-.07,0-.13-.14l-.05,0a2.77,2.77,0,0,0-.1-.26h0l0,0h0a.14.14,0,0,0,0-.06s0,0,0,0a.17.17,0,0,1,0-.05L58,80a.36.36,0,0,1,0-.09h0a.52.52,0,0,1-.07-.11l-.1,0v0l0,0s0,0,0,0,0,0,0,0-.15,0-.2-.17a.42.42,0,0,1,.15-.08v0l.11,0s0,0,0,0l.14-.06a0,0,0,0,0,0,0l0,0,0,0,0,0,.08.06.06,0s0,0,0,0h.07a.79.79,0,0,0,.18.22h0s0,0,0,.07h0a.08.08,0,0,0,0,0h0a.61.61,0,0,0,0,.12h.05a.3.3,0,0,1,0,.1l0,0a.83.83,0,0,0,.11.15.14.14,0,0,1,.16.07l.47-.24a.43.43,0,0,1,0,0l.11-.05s0,0,0-.06h.09a.13.13,0,0,0,0-.06l.12,0v0h0a.14.14,0,0,1,0-.11c0-.09-.07-.18-.11-.26l.06,0c0-.06,0-.06,0-.1h0v0h0s0-.09,0-.12a.31.31,0,0,0-.15,0s0,0,0,0-.36.19-.41.22-.08-.15-.12-.22l0,0a0,0,0,0,0,0,0h.06s0,0,0,0a.57.57,0,0,0,.13-.08.08.08,0,0,0,0,0c.08,0,.08-.07.15-.11a.22.22,0,0,1,0-.08l.19-.13.2,0a0,0,0,0,1,0,0h0v0Z"
     transform="translate(-2.48 -2.45)"
     id="path122" />
  <path
     class="cls-2"
     d="M38.49,78.18h0v-.05h.1v0h0c.06-.13.09-.23.22-.29v-.07l.1,0a.24.24,0,0,0,0-.08l.06,0s0-.08,0-.13h0s0,0,.05,0l0-.16c.06,0,0,0,.08,0h0s0-.07,0-.1l0,0s0-.08,0-.12l.07,0a1,1,0,0,0,0-.35h-.08a1,1,0,0,1,0-.27h0a.09.09,0,0,0,0,0,.57.57,0,0,1,.33,0,0,0,0,0,0,0,0h.06a0,0,0,0,0,0,0h.08v0l.09,0a.36.36,0,0,1,0,.1l0,0,.05.07h0s0,.07,0,.12h0a.43.43,0,0,1,0,.05h.08v0h0a.82.82,0,0,1-.07.29s0,0,0,0v0h0v.1h0v.07l-.08,0c0,.08,0,.09-.1.12a.8.8,0,0,0,0,.15h0a.49.49,0,0,1,0,.12.6.6,0,0,1-.13.09c0,.06,0,.12-.05.18h0s-.08.07-.1.14h-.08a.2.2,0,0,1-.18.16c0,.08-.06.09-.08.17l-.1,0s0,0,0,.08-.08,0-.13.07v0l-.13,0-.08.1h-.07a0,0,0,0,1,0,0s0,0-.09,0,0,.06-.06.12l-.1,0v0h0a.17.17,0,0,0,0,.07l-.05,0c0,.13,0,.25,0,.38h0s0,.07,0,.11,0,0,0,0a.06.06,0,0,1,0,0s0,0,0,0,0,.2,0,.25,0,0,0,0l0,.25h0v0h0c0,.12,0,.25,0,.38h0c0,.05,0,0,0,.05s0,0,0,0h0a.31.31,0,0,0,0,.1l-.05,0c0,.12,0,.25,0,.37s0,0,0,0,0,0,0,0a.53.53,0,0,0,0,.13h0s0,.1,0,.15,0,0,0,0l0,.1h0s0,.07,0,.1h0a.36.36,0,0,1,0,.1s0,0-.06,0a1.12,1.12,0,0,0-.1.22h0l0,0h-.4a.25.25,0,0,0-.24-.19.22.22,0,0,1,0-.08c-.08,0-.08-.1-.17-.13v0l0,0c0-.08,0-.16,0-.24l.43-.08a.13.13,0,0,1,.13-.12c0-.17.06-.42.1-.6s0-.29,0-.45h.05c0-.08,0-.14,0-.21h0s0-.06,0-.1h0v0h0v0s0,0,0,0,0-.05,0-.05a.69.69,0,0,0,0-.13.28.28,0,0,0-.15,0v0l-.2.11v.06l-.11.07v.07h0l-.06.07-.07,0a.13.13,0,0,0,0,.08h-.08c-.08.05,0,.14-.18.17v.07l-.08,0v0h0a0,0,0,0,1,0,0h0s0,.05,0,.08,0,0,0,0l0,.12s-.09,0-.13,0,0,0,0,0l-.11,0v0a.36.36,0,0,1-.17.07,0,0,0,0,0,0,0h-.06v0c-.15,0-.22.06-.38.06s0,0,0-.15.06-.15.08-.22l.23-.07.06-.07h.05l0-.07.12,0s0,0,.06-.07.08,0,.13-.09,0,0,0,0a1.53,1.53,0,0,0,.16-.25h0s0,0,0,0v-.07l.06,0a0,0,0,0,1,0,0h0c0-.07,0,0,0-.07s0,0,0,0h.08a0,0,0,0,1,0,0l.08,0v-.08h.05a.2.2,0,0,1,0,0,.56.56,0,0,0,0-.12l.07,0s0,0,0-.07l0,0a.07.07,0,0,0,0,0s0,0,0,0a.64.64,0,0,0,0-.07h.05a.66.66,0,0,1,.09-.19l.05,0,0-.08h0a.41.41,0,0,0,0-.11l-.24-.06c-.06.06-.14,0-.21.09l0,0-.1,0v.07h-.05v0c-.09,0-.11.08-.21.09V79h0l-.18.12s0,0,0,0l-.27,0,0,0h0l-.09.09-.12,0,0,0h0l0,.07s-.1,0-.17,0a.51.51,0,0,0-.22-.06c0,.11,0,.06-.08.12h0v0l-.1,0v0a1,1,0,0,1-.25,0,.69.69,0,0,1,0-.13h0a.8.8,0,0,0,0-.15h0v-.12l.08-.05a.38.38,0,0,1,0-.1s0,0,0,0v0h0a.66.66,0,0,1,0-.14l.07,0a.19.19,0,0,0,0-.08c0-.06,0-.08.1-.12s.21.08.37,0,0,0,0,0h0v0h.1a.73.73,0,0,0,.08-.09h.05a0,0,0,0,0,0,0h.28v0s0,0,0,0v0h.45s0,0,0-.07a1.07,1.07,0,0,1,.19-.07c.09,0,.17.06.26,0s0,0,.06-.07h.08l0-.07c.15-.09.25,0,.26-.24.05,0,.05-.06.06-.15h.05v0l.07,0c0-.12,0-.11.07-.18s0,0,0,0c0-.25,0-.5,0-.75h-.06c0-.2,0-.4,0-.6h-.07l0-.06a.45.45,0,0,0-.17-.13l0-.12.16,0v0l.2,0s0,0,.05,0v0H38s0,0,0,0l.22.09a.14.14,0,0,1,0,.07l.05,0,0,.11h0s0,.07,0,.1l0,0c0,.11,0,.22,0,.33h0a1.09,1.09,0,0,1,0,.18s0,0,0,0a.92.92,0,0,1,0,.16h0a.34.34,0,0,0,0,.1h0c0,.1,0,.21,0,.33s0,.09,0,.14h0l.12.18a.18.18,0,0,0,.07,0,.88.88,0,0,0,0,.16h0a.74.74,0,0,1-.06.34l-.06,0v0h0v0s0,0,0,0,0,0,0,0A.17.17,0,0,0,38.49,78.18Z"
     transform="translate(-2.48 -2.45)"
     id="path124" />
  <path
     class="cls-2"
     d="M42.05,77.7v0c.13,0,.14.1.25.14a.22.22,0,0,0,0,.09h0a.53.53,0,0,1,0,.13l.05,0a.61.61,0,0,1,0,.14s0,0,0,0,0,0,0,.08l-.08,0v0h-.08v0h0a0,0,0,0,0,0,0,.49.49,0,0,1-.25,0c-.19,0-.4,0-.59,0v0l-.4,0v0h-.08s0,0,0,0h-.12v0h0a0,0,0,0,1,0,0l-.45,0v-.07h0c-.09-.11-.13,0-.12-.23.1,0,.12-.12.28-.11v0h.38a.08.08,0,0,1,0,0h.05a0,0,0,0,0,0,0h.1s0,0,0,0h.23v0h.1v0h.08v0l.07,0v0h0l0-.07h.35v0h.07a.56.56,0,0,1,0,.08A.53.53,0,0,1,42.05,77.7Z"
     transform="translate(-2.48 -2.45)"
     id="path126" />
  <path
     class="cls-2"
     d="M40.56,79.3a.57.57,0,0,1,.34.16s0,.07,0,.1h0a2.26,2.26,0,0,0,0,.26h0v0s0,0,0,0l-.06.15c0,.06-.08.07-.11.17h0l-.11.13c-.07,0-.1,0-.13.11s-.14.17-.38.16a.68.68,0,0,1,0-.35h0s0,0,0,0l.1-.08a.38.38,0,0,1,0-.1h0l0-.15s0,0,0,0a.29.29,0,0,0,0-.09l-.19-.12s0,0,0,0h-.08a0,0,0,0,0,0,0l-.15-.13,0-.08h0a.22.22,0,0,0,0-.08h0c0-.08,0,0,.06-.07v0h0v0h0v0a1.07,1.07,0,0,1,.47.08h.13s0,0,0,0S40.54,79.25,40.56,79.3Z"
     transform="translate(-2.48 -2.45)"
     id="path128" />
  <path
     class="cls-2"
     d="M40.18,81.55c.18,0,.48.16.53.3s0,.23,0,.35h0s0,0,0,.07h0v0a1.15,1.15,0,0,1-.53.12L40,82.26h0v-.09s0,0,0,0a.52.52,0,0,1,0-.11.15.15,0,0,1-.07,0l0,0h0a.08.08,0,0,0,0,0h0a.09.09,0,0,0,0-.05l-.12-.08a1.3,1.3,0,0,1-.11-.43,2,2,0,0,0,.09-.2,1,1,0,0,1,.25,0,.36.36,0,0,0,.07.1l.07,0v0h0a.14.14,0,0,1,0,.06C40.11,81.45,40.15,81.43,40.18,81.55Z"
     transform="translate(-2.48 -2.45)"
     id="path130" />
  <polygon
     class="cls-2"
     points="34.74 42.93 50.35 42.93 42.6 40.24 34.74 42.93"
     id="polygon132" />
  <rect
     class="cls-2"
     x="34.78"
     y="43.59"
     width="15.53"
     height="1.31"
     id="rect134" />
  <rect
     class="cls-2"
     x="34.07"
     y="52.24"
     width="16.94"
     height="1.32"
     id="rect136" />
  <polygon
     class="cls-2"
     points="34.78 54.2 34.78 57.92 36.48 57.92 36.48 55.34 38.56 55.34 38.56 57.92 41.51 57.92 41.51 55.34 43.58 55.34 43.58 57.92 46.53 57.92 46.53 55.34 48.61 55.34 48.61 57.92 50.31 57.92 50.31 54.2 34.78 54.2"
     id="polygon138" />
  <path
     class="cls-2"
     d="M52.79,53.32V48H37.25v5.34h-.7V54H53.49v-.65Zm-4.72-4.25h3.08v4.24H48.07Zm-4.59,0h3.08v4.24H43.48Zm-4.59,0H42v4.24H38.89Z"
     transform="translate(-2.48 -2.45)"
     id="path140" />
  <rect
     class="cls-2"
     x="33.58"
     y="59.21"
     width="17.76"
     height="1.28"
     id="rect142" />
  <path
     class="cls-2"
     d="M75.29,45a30.3,30.3,0,1,0-32.66,30.2L45,79.27l2.37-4.1A30.28,30.28,0,0,0,75.29,45ZM24.13,24.1A29.53,29.53,0,0,1,71.6,32.2H18.39A29.86,29.86,0,0,1,24.13,24.1Zm0,41.73a29.54,29.54,0,0,1-6-33.07l24,41.57A29.44,29.44,0,0,1,24.13,65.83ZM45,75.52,21.21,34.24H68.85Zm2.86-1.19,24-41.57a29.5,29.5,0,0,1-24,41.57Z"
     transform="translate(-2.48 -2.45)"
     id="path144" />
</svg>
