<svg id="Layer_1" data-name="Layer 1" xmlns="http://www.w3.org/2000/svg" viewBox="0 0 76.3 76.3"><defs><style>.cls-1{fill:#ff8200;}.cls-2{fill:#fff;}</style></defs><polygon class="cls-1" points="76.3 76.3 76.3 0 0 0 0 76.3 76.3 76.3 76.3 76.3"/><path class="cls-2" d="M66.67,9.62V28.87H59.54c0-3.54-3.51-6.41-7.84-6.41a8.08,8.08,0,0,0-7.13,3.74V50.26a9.09,9.09,0,0,0,8.89,9.27h0v7.13H22.82V59.53h0a9.09,9.09,0,0,0,8.89-9.27V26.2a8.08,8.08,0,0,0-7.13-3.74c-4.33,0-7.84,2.87-7.84,6.41H9.63V9.62Z"/></svg>