<svg id="图层_1" data-name="图层 1" xmlns="http://www.w3.org/2000/svg" viewBox="0 0 646.82 646.82"><defs><style>.cls-1,.cls-2{fill:none;}.cls-1,.cls-2,.cls-5{stroke:#1d2088;stroke-miterlimit:22.93;}.cls-1{stroke-width:7.76px;}.cls-2{stroke-width:10.35px;}.cls-3,.cls-5,.cls-6{fill:#1d2088;}.cls-3,.cls-4,.cls-5{fill-rule:evenodd;}.cls-4{fill:#e60012;}.cls-5{stroke-width:0.22px;}</style></defs><circle class="cls-1" cx="323.41" cy="323.41" r="319.53" transform="translate(-133.96 323.41) rotate(-45)"/><circle class="cls-2" cx="323.41" cy="323.41" r="237.32" transform="translate(-133.96 323.41) rotate(-45)"/><path class="cls-3" d="M407.69,135.75a206.45,206.45,0,0,1,73.64,55.91H407.69V135.75ZM287.25,510h-4V484.69a20.7,20.7,0,0,1-3.76,2.73,25.89,25.89,0,0,1-4.18,2v-3.83a24,24,0,0,0,5.82-3.79,15,15,0,0,0,3.53-4.32h2.55V510Zm13.27-7.47,3.81-.35a6.62,6.62,0,0,0,1.85,3.9,5.08,5.08,0,0,0,3.51,1.21,6,6,0,0,0,3.2-.84,6.88,6.88,0,0,0,2.26-2.23,13.34,13.34,0,0,0,1.48-3.78,20.31,20.31,0,0,0,.59-4.85c0-.18,0-.45,0-.79a9.31,9.31,0,0,1-3.25,3.07,8.83,8.83,0,0,1-4.46,1.18,9,9,0,0,1-6.79-2.91,10.64,10.64,0,0,1-2.78-7.67,10.9,10.9,0,0,1,2.9-7.91,9.67,9.67,0,0,1,7.26-3,10.42,10.42,0,0,1,5.77,1.7,10.63,10.63,0,0,1,4,4.83q1.35,3.15,1.35,9.1a29.67,29.67,0,0,1-1.33,9.86,11.68,11.68,0,0,1-4,5.58,10.33,10.33,0,0,1-6.22,1.92,8.55,8.55,0,0,1-9.08-8Zm16.24-14.26a7.77,7.77,0,0,0-1.82-5.42,5.69,5.69,0,0,0-4.37-2A6.09,6.09,0,0,0,306,483a8,8,0,0,0-2,5.6,6.94,6.94,0,0,0,1.86,5,6.15,6.15,0,0,0,4.59,1.92,5.87,5.87,0,0,0,4.53-1.92,7.58,7.58,0,0,0,1.78-5.35Zm10.77,13.27,4.17-.36a7.53,7.53,0,0,0,2.14,4.58,5.85,5.85,0,0,0,4.07,1.53,6.33,6.33,0,0,0,4.85-2.16,8.15,8.15,0,0,0,2-5.73,7.34,7.34,0,0,0-1.9-5.35,6.66,6.66,0,0,0-5-2,7,7,0,0,0-3.46.87,6.76,6.76,0,0,0-2.42,2.26l-3.72-.48,3.13-16.59h16.06v3.79H334.54l-1.74,8.68a10.47,10.47,0,0,1,6.1-2,9.69,9.69,0,0,1,7.14,2.93A10.26,10.26,0,0,1,349,499a11.79,11.79,0,0,1-2.55,7.58,10.28,10.28,0,0,1-8.49,3.92,10.44,10.44,0,0,1-7.2-2.47,9.62,9.62,0,0,1-3.18-6.54Zm33.72-9.06a7.48,7.48,0,0,1-3.67-2.58,6.74,6.74,0,0,1-1.18-4,7.86,7.86,0,0,1,2.53-5.93,9.39,9.39,0,0,1,6.74-2.4,9.5,9.5,0,0,1,6.82,2.46,8,8,0,0,1,2.57,6,6.61,6.61,0,0,1-1.18,3.92,7.44,7.44,0,0,1-3.58,2.56,8.74,8.74,0,0,1,4.53,3.13,8.63,8.63,0,0,1,1.55,5.15,9.32,9.32,0,0,1-2.92,7,11.95,11.95,0,0,1-15.43,0,9.4,9.4,0,0,1-2.94-7.06,8.53,8.53,0,0,1,1.61-5.28,8,8,0,0,1,4.55-2.9Zm-.8-6.72a5.08,5.08,0,0,0,1.47,3.74,5.26,5.26,0,0,0,3.84,1.46,5.14,5.14,0,0,0,3.76-1.44,4.78,4.78,0,0,0,1.46-3.54,5,5,0,0,0-1.5-3.67,5.16,5.16,0,0,0-3.76-1.49,5.22,5.22,0,0,0-3.77,1.45,4.7,4.7,0,0,0-1.5,3.49Zm-1.28,14.92a7.1,7.1,0,0,0,.81,3.28,5.62,5.62,0,0,0,2.39,2.46,7,7,0,0,0,3.41.87,6.42,6.42,0,0,0,4.7-1.83,6.8,6.8,0,0,0-.06-9.39,6.52,6.52,0,0,0-4.77-1.87A6.25,6.25,0,0,0,361,496a6.34,6.34,0,0,0-1.84,4.63ZM513,243.48H409.48V380.24c0,46.5-36.33,84.2-82.82,84.2a84.2,84.2,0,0,1-84.19-84.2H125.7c24.66,85.94,103.85,148.85,197.71,148.85C437,529.09,529.09,437,529.09,323.41A204.91,204.91,0,0,0,513,243.48ZM117.79,328.09c0-1.55-.06-3.11-.06-4.68A205.76,205.76,0,0,1,242.47,134.29v193.8Z"/><path class="cls-4" d="M486.29,197.42H303.23L255,337.87H118.43a179.94,179.94,0,0,0,4.74,31.74h243.3l10.39-30.16H290.58l10.68-31h91.3l11.38-33H312.63l12.53-36.36H511.3C504.34,224.45,496.3,210.18,486.29,197.42Z"/><path class="cls-3" d="M407.69,105.15v30.57a206.3,206.3,0,0,0-165.24-1.43V103.74c25.83-10,51.6-14.43,81-14.43A227.88,227.88,0,0,1,407.69,105.15Z"/><path class="cls-3" d="M405.87,67.78l-.1.67c-.94,1-4.36,3.92-6,3.67-1,1.13-1.24.46-2.47.88s-.89.69-2.7.58c-.19-.17-.38-.24-.33-.6s1.78-1.41,2.14-1.81a19.15,19.15,0,0,1,1.93-2.25s1.88-2.25,1.9-2.29c.17-.31,1.58-2.46,1.7-2.56a27.24,27.24,0,0,0,1.76-2.32c.36-.81.23-.78.83-1.3s.39-.81.8-1.36.56-.26,1-1.09a5.64,5.64,0,0,1,.83-1.31c.7-.7.86-2.12,2.17-1.93.54.08.33.6.87.68.86.12,1.14-.66,2-.54l.27,0c.3.05.28.15.5.35A7,7,0,0,1,411.55,59c-.42.63-.35,1.17-.72,1.78s-.72.53-1.05,1.33c-.54,1.27,0,.56-.89,1.55-.69.73-.3,1.1-.83,1.62-1,.94-.35,0-1,1.43-.19.42-.88.74-1.21,1.12ZM392.44,51.92c-.19.22-.3.2-.34.5l0,.13c-.08.54,1.65,2.15,2.08,2.54s1.06.16,1.6.85.42.65,1.63.83c.13.26.24.27.2.58l0,.13a3,3,0,0,1-1.34,1.6c-.2,1.42-2.5,3-2.78,4.51l-1.07,1.13c-.2,1.42-.54,1-1.21,1.76-.26,1.76-1,1.09-1.3,2.29a6,6,0,0,1-1.32,2.43,3.62,3.62,0,0,1-1.24,2.68,5.46,5.46,0,0,0-.6,1.46c-.26.7-.63.57-.73,1.27a.52.52,0,0,0,.46.62l.81.12c1.13.16.94-1,2.45-.75l.81.12c.82.12,1.11,1.1,2.95,1.53,1.14.26,1.06,1.11,3.24,1.43l3.11.45a29,29,0,0,0,4.51-.4c.07,0,3.45-1.54,3.61-1.63a10.71,10.71,0,0,0,1.36-1.4c.26-.25.35-.54.61-.79s.55-.37.77-.58c.85-.83,1.53-2.35,2.65-2.89.24-1.65.79-1,1.18-1.81.76-1.68.31-.65,1.26-1.7.3-2.07,1-1.42,1.49-2.84.51-1.62,1.16-1.72,1.42-2.94a5.8,5.8,0,0,1,.45-1.81,7.22,7.22,0,0,0,.6-1.62,22,22,0,0,0,.39-3.79,14,14,0,0,1-.16-1.69c.12-1.05.09-.86-.36-1.53a4.22,4.22,0,0,0-2.19-2c-.79-.27-.89-.26-1.34-.81s-.73-.44-1.32-.82-2.75-.79-2.61-1.78c.11-.77,1.89-.7,2-1.5l.06-.4c.11-.75-1.12-2-1.63-2.4s-1.91-1.7-2.46-1.78l-.27,0c-1-.15-1.14,1.43-1.45,2.24a16.43,16.43,0,0,1-1.73,1.88c-.62.47-.35.42-.69,1.16s-.58.48-.89.91,0,.68-.68,1.19c-.32.26-.78.73-1,.88s-2.27.89-2.45.92c-.88.12-.61.33-1.17.53s-1-.05-1.55.18c-.42.16-.58.46-1.13.58s-1-.18-1.61-.06C393.92,51.93,394.81,52.26,392.44,51.92Z"/><path class="cls-3" d="M515.19,133.53l-2-2.1c-.45-.49-.3-1.13-.63-1.47a.52.52,0,0,0-.77,0l-.3.28c-.67.63-.4,1.18.23,1.85a5.72,5.72,0,0,0,.76,3.42l.6.76,2.6,2.06.09.1a2.14,2.14,0,0,1,.61,2.06c-1.63,1.53-2.52,1.24-3.56,2-1.67,1.26-2.44.78-3.55,1.81-1,.16-.9-.08-1.86.61-.52.37-1.74-.05-1.84-.15-.49-.52.62-1.35-.49-2.54l-.19-.2c-.41-.44-1.22-.92-1.63-.54l-.1.09c-1.59,1.49-1.2,8.95.42,10.68l.37.4c.4.43,2.62.41,3.19.36s.82-.53,1.67-.66a2.38,2.38,0,0,0,1.68-.68l1.43-.12,1.31-1c1.32.31,1.27-.45,2.46-.91s1,.08,2.47-1.23l2.44-.61c1.57-1.47,1.48-.08,3.47-2l1.72.34a18.09,18.09,0,0,0,3.12,2.61c1.21.9,1.78.42,3.32,2.07,1.29.3,3.91,1.22,5.14.07l.2-.18c.57-.54.88-2.67.21-3.39,0,0-1.68-1.12-1.9-1.28a4.44,4.44,0,0,0-2-.69c-1.26-1.35-2-.56-3.33-2l-.75-.8c-.68-.73,1.26-1.93,2.13-2.74.29,0,.36,0,.59-.17l2.8-2.62,2.62-3c.59.14,2,.78,2.51.28l.1-.09c.38-.36.2-3,.12-3.49-1.39-1.48-.13-2.75-1.23-3.92-.72-.77-2.18,1.29-3.07,1.86s-2.69,1.48-3.06,1.8a39.32,39.32,0,0,1-3.09,2.5c-.93.68-2,.83-3.07,1.76-1.64,1.49-4.7,4-6.1,2.71s-1.68-.37-3-1.75C517.09,134.53,515.7,134.08,515.19,133.53Z"/><path class="cls-3" d="M521,151.38l-1.24,1.08-4.17,4.36a24.92,24.92,0,0,1-2,1.68c-1,.78-1.44-.16-2,.32l-.1.09c-.22.21-.14.29-.21.58.86.92,1.88,3.44,1.72,4.21l1.1,1.41,1.87,2c.59.64,3.86.33,4.17,0l1.6-1.49a2.4,2.4,0,0,0,.44-1.73c1-.94,1.11-5.06,1-6.27-.06-1.06-.28-2.15-.38-3.21-.06-.65-.46-.76-.44-1.57s.17-1-.47-1.66C521.68,150.91,521.3,151.09,521,151.38Z"/><path class="cls-3" d="M567.09,260.74c1.16-.47,5.46,2.52,5.81,3.37l.13.34a1.75,1.75,0,0,1-.63,1.77c-.17.16-1.49,1.31-1.5,1.31l-.11.05a2.52,2.52,0,0,1-1.93-.91l-.87-2.12c-.11-.28.08-.36,0-.83s-.24-.62-.32-1c-.31-1.31-.59-.72-.9-1.48a.53.53,0,0,1,.31-.52Zm14.5-5.38c-.82.34-.9,1.59-1,2.25a7.26,7.26,0,0,1,.35,1.82c.13.33.34.2.54.69a.47.47,0,0,1-.27.63,8.59,8.59,0,0,1-2,.28l-.68.24-1.29.69c-.53-.11-3.5-2.94-4.14-3.59-1.09-1.1-3.62-2-4.19-3.45-.21-.14-.43-.35-.74-.22l-.34.14c-.3.12-.75,1.13-1.25,1.41-1.59.9-.8,0-1.63,1.35-.45.76-.57.49-1,1.6a15.79,15.79,0,0,0-.65,1.77c-.12.45.07.5,0,1s-.25.55-.31.89a16,16,0,0,1,.07,2.07,3.37,3.37,0,0,0,.46,2.23,5.76,5.76,0,0,1,.38,2.2c.2.51.72.77,1,1.18.35.57.45,1.28.81,1.82s2,1.46,2.65,1.19l2.46-1a10.94,10.94,0,0,0,2.53-1.9c.5-.35,1.26-.43,1.59-.81s.19-.87.83-1.13l.23-.09c.25-.11.28,0,.53,0a5.25,5.25,0,0,0,1.08,2.06c.19.18,1.3,1,1.57.91s.5-1.69.66-2.13c.31-.87.71-1.21.23-2.41-.19-.47-.44-.44-.68-1l-.09-.22a.46.46,0,0,1,.26-.63l.45-.18c.74-.3.87.29,1.77.19s1,.28,1.77.43c1.18.23,2.24,1.07,3.69.48l.89-.36a2.79,2.79,0,0,0,1.35-2.77l-.45-1.12a21.61,21.61,0,0,0-3.77-2.93c-.69-.29-.42-.41-.87-.79s-.75-.22-1-.64C582.83,256.86,582.49,255,581.59,255.36Z"/><path class="cls-3" d="M587,245.6c-.16-.4,2.57-4.89,2.28-5.62l0-.11c-.1-.25-.19-.21-.4-.36-1.45.59-1.62.25-3,.58a22.27,22.27,0,0,0-3.22,1L575.65,244c-.67.27-2.63,2.84-2.2,3.89l.14.34a2.36,2.36,0,0,0,1.31,1.06c1.12.47.52.36,1.84,0,.85-.22,1,.13,1.72.11a8.15,8.15,0,0,0,2.19-.82,16,16,0,0,1,2.1-.81c.76-.07.43.49,1.78.18.76-.18,1.18-.16,1.66.46.28.37,1.14,1.22,1.24,1.46l.36.89c.25.61,0,.71.28,1.32l0,.12c.28.7,1.86,1.63,2.37,2.05s2,1.94,2.43,2.15c.68.34,1.39,2.2,2,3a21.23,21.23,0,0,1,2.08,3,1.77,1.77,0,0,1-.09.42l-1.23.5a2.61,2.61,0,0,0-.28,1.55,13.34,13.34,0,0,0,1,1.44,21.62,21.62,0,0,1,.83,2,6.06,6.06,0,0,0,2.12,2.65c.43,1.06,3.85,3.52,4.68,3.18l.56-.22c.4-.17.7-1.45,1-1.83l-.23-.56a5.54,5.54,0,0,0,.1-1.34l-.73-1.79c-.37-.93-1.43-1.92-2-3.09-.72-1.42-1.23-.86-2.22-2.88a18.62,18.62,0,0,0-2.07-3.22,39.36,39.36,0,0,1-1.83-3.79,9.11,9.11,0,0,0-.85-1.93c-.38-.47-.71-.37-1.18-1.16,0,0-2.36-2.24-2.46-2.29-.72-.37-.66-.88-1.16-1.22a4.13,4.13,0,0,1-1.3-1.09c-.58-.6-.43,0-1.2-1.1C587.88,246,587.31,246.37,587,245.6Z"/><path class="cls-3" d="M599.3,256l-.44.18c-.26.11-.31.22-.2.47l0,.12c.23.55.51.39.79,1s.49.87.71,1.42c1,.21,1.1,1.13,1.76,2a12.54,12.54,0,0,0,2,1.54c.52.3.51.59.89,1s.53.31,1,.72c.62.56,1.29,1.08,2,1.65,2,1.59,2.75.85,4.59,1.64.68.29,1.51.44,2.35.8a3.63,3.63,0,0,0,2.5.45l.78-.32c.78-.31,1.52-2.61,1.67-3.37,0-.09.46-1.82.47-1.84.29-.7,1.31-.71.89-1.76l-.23-.55a8,8,0,0,0-2.37-1.42,16.58,16.58,0,0,0-2.66-.71c-.77-.12-1.77-.74-2.61-.85-.68-.09-.55-.31-1.36-.29a3.4,3.4,0,0,1-1.38-.23c-.59-.16-.57.14-1.43-.14-.55-.18-.7,0-1.36-.3a12.39,12.39,0,0,0-2.68-.68c-.68-.13-.39-.43-1.38-.23-.82.16-.84-.14-1.43-.13s-.85.4-1.53.12A1.73,1.73,0,0,0,599.3,256Z"/><path class="cls-3" d="M605.25,237.92c-2.37,1-2.43-.19-4.32.58l-3,1.23a3.77,3.77,0,0,0-2.29,1.63c-.39.5-.74.36-1,.86-.17.28-.36.72-.55,1.07-.56,1.07-1.5,3.44-.9,4.9a3.28,3.28,0,0,0,1.64,1.16c.9-.37,2.07-1,2.78-.88a3,3,0,0,0,2.5-.23l1.46-.59c.26-.11.62-.4.53-.61-.16-.4-.78-.32-.87-.56a.46.46,0,0,1,.26-.63l.56-.22c.78-.32.94.4,1.73.08.08,0,.82-1.31,1-1.54.38-.62.17-.95.47-1.75.17-.45.12-1.14.3-1.82.12-.48-.09-.44.12-1,.11-.26.38-.61.26-.91l-.09-.22A1.22,1.22,0,0,0,605.25,237.92Z"/><path class="cls-3" d="M611.66,252.39c-.5-1.22-.89-.77-1.78-1.94-.73-1-1-.12-1.77-2a6.37,6.37,0,0,0-1.77-.85,15.84,15.84,0,0,0-1,2.46,3.43,3.43,0,0,0-.39,2.8l.36.89c.25.62,2.66,1.44,3.24,1.55,1.14-.46,1.18-.06,2,.11,1.61-.66,1.17.57,2.61,0a21.4,21.4,0,0,0,3.48,1.19.46.46,0,0,0,.26-.63l-.18-.44c-.23-.56-2.08-.8-2.56-1.41-.58-.77-.65-.33-1.18-.93A1.87,1.87,0,0,0,611.66,252.39Z"/><path class="cls-3" d="M233.68,67.94l0-.13a.52.52,0,0,1,.37-.66l1-.3c.69-.2.78.05,1.47-.15l.51-.15c.67-.2.67-.47,1.2-.63s2,1.12,2.13,1.59l1,3.58c.4,1.36-1,3.61-2.8,4.14l-.26.07c-.7.2-1.08-.92-1.35-1.44-.41-.79-.79-.76-1.26-1.61-.21-.38-2-4.26-2-4.31ZM231.62,58c-.25-.84-1.59-.67-1.76-1.28l-.12-.39.9-.26c.73-.21,2,.36,3.19,0,1-.25,3-1.25,3.25-.27l.74,2.55.38,1.83c-.33,1.1-1.44,1.12-2.64,1.75-1,.53-1.65,1.3-2.73,1.62a.91.91,0,0,1-.69-.49l-.56-2.05-.15-.37c-.41-1.42.65-1.11.19-2.69Zm10.53-3.76c-.7-2.37-.44-2.49,1-3.72a12.47,12.47,0,0,1,2.15-1,5.46,5.46,0,0,0,1.9-1.1l.26-.08a.51.51,0,0,1,.66.36l.15.51c.05.19-2.32,6.49-3.29,6.77l-1.15.34a1.71,1.71,0,0,1-1.94-1l-.07-.25c-.09-.32.18-.57.29-.91Zm-7.83-17.79.08.26s-.32,1.87-.37,2a19.9,19.9,0,0,1,.85,5.51c0,1.67,1.55,4.28,1,5.6-.35.89-1.18.87-1.69,1.54-.73,1-1.5.79-1.92,1.52-.86,1.46-.67.6-1.92,1.52s-.55,1.73-1.19,1.92l-.26.07c-.41.12-1.76-1-2.58-.77s.45,2.94.66,3.68a8.29,8.29,0,0,0,.3,4.34l.93,3.19A13.91,13.91,0,0,0,230,70.57a40,40,0,0,1,1.68,3.77c.73.22.91.73,1.2,1.72A17.94,17.94,0,0,1,235,78.5c.49,1.64-2.61,2.88-2.37,3.73l.08.26c.21.72,1.56.67,2.17.72.9.08,1,.7,2.54.25l1.79-.52c.44-.13,1.14-2,1.48-2.4s.67-.36,1.09-1,.22-.72,1.26-1c.26-.31.46-1,.79-1.06s1.6,1,1.81,1.19c.35.39.18.56.7.89.29.18.82.29.92.65l.19.64s-1.21,2.71-.26,2.43c.79-.23.85-.66,1.16-.75l.51-.15c.61-.18,1.14.23,2.45-.16a8.59,8.59,0,0,1,2.85-.7c1.33.24.29.4,2.21.26.81,0,1.68.4,2.35.21l3.06-.89a12.17,12.17,0,0,0,1.11-1.43l.63-.19c.18-.56.82-1,.69-1.45-.21-.73-2.47-1.46-3.21-1.57-2.27-.34-1.57-.35-4.46.52l-1.26-.62L250,77.84a5.33,5.33,0,0,1-2.24-2l-.37-1.27c-.3-1,0-1.38,1-1.69a33.63,33.63,0,0,1,1.93-3c.3-.56.56-1,.86-1.57s.24-1.37.61-1.8c-.37-1.28.07-1.35.33-2.18-.36-1.25.84-2.66,1.32-3.67.35-.75,1.44-2.81,2.39-3.08.44-1.42,2.62-4.66,3.47-6.24.48-.88,2.64-6,2.4-6.83l-.48-1.66c-.32-1.08-2.3-1.94-3.13-2.3s-.83.12-1.8-.63a6,6,0,0,0-1.83-.77l-1.78.52a4,4,0,0,0-1.88,1.23c-.87.77-1.19.48-2.27,1-1.6.78-1.89,1.6-4.23,2.29a6.6,6.6,0,0,1-1.48,1.32,9.54,9.54,0,0,0-1.09.48c-.37.29-.23.54-.84.72a.77.77,0,0,1-.83-.46l-.85-2.93c-.38-1.29,0-2.91-.21-4.4s.39-3,0-4.27c-.17-.58-4.56-2.82-5.2-2.63l-.13,0a3.24,3.24,0,0,0-.88,2.18C233.33,35.64,234.17,35.94,234.32,36.47Z"/><path class="cls-3" d="M122.1,146.08c-.76-.55.68-.6-.4-1.84l.32-.45c.19-.26.33-.29.59-.1,0,0,.6,2,.38,2.34l-.08.11c-.18.26-.32.29-.58.1l-.23-.16Zm-13.21-15.83,1.58,1.14,6.64,4.4c.39,0,2.7-.12,2.79-.06l1.25.9c.87.63.76,3.73,0,4.71l.41,1.42-.57.8c.23.62.33.55.13,1.28s.06.78.15,1.37a10.23,10.23,0,0,1,.39,2.64c-.19.26-.33.29-.59.1-.74-.53-1.32-1.76-2-2.47-.91-.88-2.2-1.4-3.06-2.29s-1.87-1.47-2.67-2.37a11.62,11.62,0,0,0-2.21-2.43l-1.45-1.09L107.5,137c-1.15,0-3.23,0-4.11,1.22l-1.4.34-1.66,1.72-.89,1.25c-.71,1,1.64,2,2.54,2.68a22.35,22.35,0,0,0,1.43,2.17c1.07,1.08,1.32.81,1.83,2.1.3.75,3.82,3.39,4.82,4.11.39,1-.11.82-.17,1.63s.44.42-.37,1.76c-.14.23-.91,3.3-.62,3.5.63.46,2,0,2.68-.09,1.77-.3,1.5.79,2.85.28l.41-.57c.89-.33,1.3.1,2-.89l.58-.14c1,.72,1.91,1,3.11,1.89a8.73,8.73,0,0,0,1.58,1.06c.64.24,1.19-.11,1.52.13,1.13.81,1.32,9.36,1.8,9.71l.11.08c.15.1,4.69-.32,5-.73l.9-1.24a28,28,0,0,0-.41-3.44c-.07-.59-.1-1.23-.2-1.77-.21-1.21.17-1,.1-1.81-.08-1.06.13-2.52.1-3.62,0-1.28-.65-2.63-.62-3.5-1-.73-.58-1-.9-1.86-1.4-1-.48-1.31-1.89-2.69-1.18-1.14-1.37-1.79-2.21-2.63a3.72,3.72,0,0,1-1.49-2.76c-.12-.69.17-.59-.1-1.48a2.05,2.05,0,0,1,.53-1.69l.16-.23a1.25,1.25,0,0,1,1.22-.5c1.52,1.08,1,.49,2.13.78a9.88,9.88,0,0,1,2.33,1.39c.77.46,1.45.86,2.35,1.51,1.14.82,1.71.71,2.29,1.12,1.45,1,.64,4.93,1.63,5.64.18.13.39.17.5,0,.79-1.09.07-2.48,1.06-3.87.8-1.12,2-1.29,2.39-1.9l.82-1.13c.46-.66-.06-1.43.75-2.73a11.81,11.81,0,0,0,1.3-2.92,4.15,4.15,0,0,0-.5-2.62c-.27-.56-.52-.48-.66-1.19a1.51,1.51,0,0,0-.76-1.27l-.11-.08a10.75,10.75,0,0,0-3.45.34c-1.11.85-2.19,1.28-3.16,2.65-.29.4-.08,1.06-.28,1.35-.53.73-1.86-.39-2.65-.87-1.39-.86-1.86-.3-2.75-1l-.68-.48c-1.36-1,.13-2.63.68-3.92.36-.84.19-1.32.44-2a6.75,6.75,0,0,0,.7-2c.06-1.33.81-2.62.69-3.92-.09-.93-.47-2.86-1.45-3.56l-.45-.32c-.37-.27-.62.17-1.54-.24-.63-.28-.88-.12-1.5,0a3.77,3.77,0,0,0-2.85,1.53c-.38,0-1.1-.15-1.37.22l-.4.57a.59.59,0,0,0,0,.7c.42.3,1.08-.43,2.5.59l.11.08c.78.56.43,1.09.26,1.76-.12.47,0,1.18-.13,1.92-.22,1,.25.69-.32,1.95-.49,1.08,0,1.59-.26,2l-.16.22c-.19.26-.27.19-.56.3l-3.85-2.77a19.17,19.17,0,0,0-1.93-1.34c-.19-.1-.72-.43-1-.55-.45-.2-.61,0-.93-.18-.14-.1-1.85-2.53-1.92-2.58-.91-.65-3.53,0-4.47.2-1.24.3-3.81-.16-4.4.66l-.08.11c-.39.56,1.53,1.9,2.08,2.56A14.64,14.64,0,0,0,108.89,130.25Z"/><path class="cls-3" d="M28.41,232.46l.48.18c.42.16.42-.06.84.1l.77.28c.38.15,2.16,1.35,2.75,1.7s.56.81,1,1.08a7.62,7.62,0,0,1,1.44.86c1.34,1.46,4.16,2.06,6.37,3.08,3,1.36,3.2,1.65,4.28,4,.39.87.75,1.64,1.14,2.51.5,1.1,1.38,1.47,1.58,2.32,1.47.55.41,1,1.93,1.59a5.35,5.35,0,0,1,.75,1.49c-.26.71-2.09-.64-3.09-.31-.81.27-1-.05-1.49.06s-.65.49-1.43.2c-.18.13-.61.43-.88.33l-.29-.11a32.73,32.73,0,0,1-2.32-4.45c-.05-.12-.32-1-.36-1.19-.17-.66.22-.88.06-1.39-.22-.73-.75-1.82-.88-2.39a8.26,8.26,0,0,0-2.87-.85c-.63.07-.27.39-1.27.19-.54-.1-.73.19-1.21.31a6.78,6.78,0,0,0-2.37.76,11,11,0,0,0-2,1.56l-.1.29c-.1.27.08.45.2.62,1,.38.67.59,1.12,1,.91.83.37.15.95,1.16s1.46,1.41,1.7,2.42c.54.2,1.37,1.47,1.82,2a3.89,3.89,0,0,1,.87,1c.38.74.78.34,1.13.92a15.65,15.65,0,0,0,1.88,1.94c.93.56.73,1.14,2.42,1.77l.28.11a1.1,1.1,0,0,0,.79,0c.33-.9.6-2.35,1.43-2.28a11,11,0,0,1,1.46.4,10.87,10.87,0,0,1,1.36.18c.74.27,1.14.75,1.82,1l3.46,1.29c.8.3,3.72-1.45,4-2.33l0-.09c.19-.51-1-1.59-1.17-1.94-.34-.66-.16-.34-.8-.83s-.22-.62-.72-.95-.61-.29-.85-.81-.46-.48-.89-.87-.12-.42-.69-.88a1.68,1.68,0,0,1-.6-1c-1.09-.41-.85-.64-1.29-1.25l-.48-.18c-.12-.17-.36-.49-.26-.75l.14-.39,1.25.47c.44.16.52.55,1.45.74a11.4,11.4,0,0,1,1.79.57c1.07.41,2.27.74,3.5,1.2l.19.07c.81.3.83.89,1.05,1.52.34,1-.24,1.28-.19,2.16a4.5,4.5,0,0,1-.07,2.11c-.29,1.22.32,1-.13,2.13S59,258.09,59,259s-.67,1.42-.47,2.3a4.33,4.33,0,0,1-.27,2.19c-.13.62-.13,1.75-.3,2.22s-1.14.44-1.5.73-.17.37-.61.6c-.23.11-.65.19-.75.45l-.11.29a.59.59,0,0,0,.3.66l.29.11c.82.3,5.2-1.29,5.36-1.73l.65-1.73c.78-2.1.47-3.63,1.34-6-.47-.66-.07-1.86.34-2.94a4.25,4.25,0,0,1-.07-1.89c.44-1.44-.28-1,.11-2.05.1-.27.36-.29.55-.31l2.07.63c.31-.07.94-.52,1.25-.41l.58.22c.44.16.43.49,1,.72l.39.14c.42.16,1-.06,1.78.23l.09,0c1.08.4,1,1,1.42,1.19s.53-.35,1.53,0l2.6,1c.29.11.44.75.61,1,1.14.42,1.94,1,2.77.8l2,1c.29.14.57,0,.94.13s.17.43,0,.8l.27.51a1.69,1.69,0,0,1,.52.08c.63.24.34.68,1,.92L85,261c.22.08.24,0,.46-.05.52-1.38,1.18-.8,1.38-1.35l.9-2.41a1,1,0,0,0-.24-1.25c-.32-.31-.53-.9-.79-1l-1.92-.72c-.35-.13-.59.32-1.09.24-.33-.06-.82-.42-1.31-.59-.86-.3-1.89-.59-2.92-1s-1.9-.5-2.76-.8c-1.65-.58-1.64-1.5-1.93-1.6l-.09,0c-.39-.14-.52.35-1.15.12l-2.5-.93c-.43-.16-.45-.5-1-.73-.44-.17-.88-.21-1.48-.43l-.58-.22c-.62-.23-.66-.46-1.28-.69l-.76-.31-1-.24c-.42-.58-.23-.78.06-1.63a3.56,3.56,0,0,0,.11-1.65,20.62,20.62,0,0,1,1.28-3.85c.28-.74.3-1.11.59-1.87a3.66,3.66,0,0,0,.11-1.65c0-.61.32-1.15.35-1.75s-.35-.72,0-1.69a10.3,10.3,0,0,1-.65-1.14c-.16-.36-.19-1.25-.4-1.33a1.56,1.56,0,0,0-1.32.09c-.3.23-.16.33-.47.53s-.37.14-.59.29l-1.12.7c-.17.19-.83,1.19-.86,1.26l-.18.48c-.29.79.41.73.5,1.61a5.86,5.86,0,0,1,0,1.83,29.66,29.66,0,0,1-1.44,4.33c.1.46.47.77.27,1.31l-.61,1.64c-.11.29-.42.28-.72.17l-.77-.29c-.51-.19-1.51-1.12-2.22-1.38l-.48-.18c-1.06-.39-2.49.64-3.28,1a9,9,0,0,1-1.57.57c-.37.15-.5,0-.86.22s-.31.63-.74.47a3.68,3.68,0,0,1-1.25-2.55c.25-.66,2.51-.38,3.51,0a12.78,12.78,0,0,0,2.31-.54c.44-.2,1.76-1,2-1.49l.36-1c.42-1.15-.1-1.08.08-2.12a6.19,6.19,0,0,0-.2-2,18.08,18.08,0,0,0-.58-1.81,20.27,20.27,0,0,0-1.65-1.32c-.42-.16-1.23.36-1.39.8l-.5,1.35c-.43,1.15-.12,2.35-.3,2.85l-.25.67c-.21.57-1.27.31-1.82.38a1.8,1.8,0,0,1-1,0c-.7-.17-.66.2-1,.07-.58-.22-.11-1.11-.13-1.63,0-.3-.17-.4-.19-.79s.2-.55.23-1-.3-.65-.17-1.68a9.53,9.53,0,0,0-.14-1.69c0-.36-.15-.38-.26-.68s.07-.4-.06-.85c-.08-.28-.39-1.39-.46-1.55-.28-.6-1-2.49-1.69-2.74l-.2-.07a10.36,10.36,0,0,0-2.49.14,14.35,14.35,0,0,1-2.06,1.09,13,13,0,0,1-1.34-.16c-.5,0-.68.24-1.24.1s-2.36-.41-2.53.05c-.08.22,0,.24.06.43l5.44,2.17A9.69,9.69,0,0,1,42,231.13s.52,1.66.56,1.82a30.06,30.06,0,0,1,1,3.62l0,.1c-.08.21-.15.18-.33.31-1.74-.65-1.91-.78-2.7-1.88l-.61-.2-1-2c-.79-.29-.62-.33-.91-.86s-.69-.35-1.12-.76a4.78,4.78,0,0,0-2.37-1.55c-.26-.36-.23-.75-.75-.94-.77-.29-2.36.69-2.88,1.22-.3.31-2.48,1.41-2.62,1.77l-.07.19A.4.4,0,0,0,28.41,232.46Z"/><path class="cls-3" d="M73.22,256.63l.09,0a.58.58,0,0,0,.66-.31l.07-.19c.14-.35-.4-.7-.78-.84l-.29-.11c-.15-.06-.31-.05-.36.09A2,2,0,0,0,73.22,256.63Z"/><path class="cls-3" d="M70.16,254.83c.22.08.62.11.68-.07s0-.24-.21-.3l-.1,0a1.65,1.65,0,0,0-.52-.08C69.94,254.62,69.87,254.72,70.16,254.83Z"/><path class="cls-5" d="M31.11,343.26l26.13-3.21.44,3.55L38.85,359.84l20.52-2.52.4,3.32-26.13,3.21-.43-3.55,18.84-16.25-20.53,2.52-.41-3.31Zm15.41,24.39q6.39-1.48,10.79,1.12a11.94,11.94,0,0,1,5.66,8,12.58,12.58,0,0,1-.21,6.79A11.42,11.42,0,0,1,59,389a15.77,15.77,0,0,1-6.53,3.08,15.49,15.49,0,0,1-7.35,0,11,11,0,0,1-5.69-3.39,12.91,12.91,0,0,1-3-5.86,12.41,12.41,0,0,1,.25-6.88,11.63,11.63,0,0,1,3.78-5.43,14.77,14.77,0,0,1,6.06-2.94Zm.76,3.51a10.52,10.52,0,0,0-6.73,4.18,8.92,8.92,0,0,0,2.92,12.56q3.27,1.85,8.23.71a13.47,13.47,0,0,0,5.22-2.33,8.38,8.38,0,0,0,2.91-3.93,8.65,8.65,0,0,0,.23-4.87,8.91,8.91,0,0,0-3.91-5.63q-3.07-2-8.87-.69Zm-6,30.55,25-8.14,3.61,11.1a15.49,15.49,0,0,1,1,5.31,5.86,5.86,0,0,1-1.47,3.56A7.49,7.49,0,0,1,66,415.81a6.57,6.57,0,0,1-5.05-.27A9.19,9.19,0,0,1,56.87,411a8.43,8.43,0,0,1-.6,2.4,18,18,0,0,1-2.43,3.84l-5.4,6.57-1.36-4.17,4.14-5c1.19-1.45,2.08-2.63,2.67-3.51A8.15,8.15,0,0,0,55,408.86a5.73,5.73,0,0,0,.18-1.72,11.19,11.19,0,0,0-.49-1.89l-1.25-3.84L42.35,405l-1.08-3.31Zm15.06-1.23,2.32,7.12a11.23,11.23,0,0,0,1.62,3.4,4,4,0,0,0,2.14,1.46,4.29,4.29,0,0,0,2.46-.07,3.88,3.88,0,0,0,2.5-2.24,6.31,6.31,0,0,0-.18-4.44l-2.57-7.93-8.29,2.7ZM52.82,434.4,54,437.68l21.82-7.95,3,8.19,2.92-1.06L74.6,417.25l-2.92,1.06,3,8.15L52.82,434.4Zm7.46,16.12L83.94,439l1.53,3.13-9.72,4.74,6,12.3,9.72-4.74L93,457.55,69.33,469.09,67.81,466,79,460.51l-6-12.29-11.15,5.43-1.53-3.13Zm37.63,44.73,1.33,3.34a11.74,11.74,0,0,1-7.61.66,11,11,0,0,1-5.92-4.31A12.66,12.66,0,0,1,83,488.32a10.87,10.87,0,0,1,1.68-6.23,17.92,17.92,0,0,1,4.9-5.28,15.41,15.41,0,0,1,6.72-2.94,10.75,10.75,0,0,1,6.4.88,13.08,13.08,0,0,1,5,4.23,10.78,10.78,0,0,1,2.28,6.56,10.45,10.45,0,0,1-2.37,6.36L105,489.6a8.09,8.09,0,0,0,1.82-4.61,7.1,7.1,0,0,0-1.51-4.32,8.51,8.51,0,0,0-4.16-3.24,7.63,7.63,0,0,0-4.84,0,15.64,15.64,0,0,0-4.58,2.3,16.31,16.31,0,0,0-4.17,4.23,7.38,7.38,0,0,0-1.24,4.67A8.49,8.49,0,0,0,88,493a7.5,7.5,0,0,0,4.27,3,8.73,8.73,0,0,0,5.68-.73Zm-1.09,13,2.24,2.67,9.51-8,8.79,10.48-9.5,8,2.24,2.67,20.17-16.93L128,504.47l-8.29,6.95L111,500.94l8.28-6.95L117,491.32,96.82,508.24Zm19.25,21.83,18.29-18.93,2.51,2.41-18.29,18.94-2.51-2.42Zm8.27,8.25,16.92-20.17,2.74,2.3-2.7,24.72,13.29-15.83,2.56,2.14-16.92,20.17-2.74-2.3,2.7-24.73-13.3,15.84-2.55-2.14Zm20.16,16.19,2.95,2.22,7.11-4.63,8.79,6.63L161,567l3.17,2.39,7.24-27.52-3-2.25L144.5,554.51Zm12.57-4.07,7.13,5.38,2.19-7.48c.67-2.27,1.26-4.1,1.8-5.49A34.54,34.54,0,0,1,164,546l-7,4.42Zm16.81,24.36,13.56-22.57,16.31,9.8-1.6,2.67-13.33-8-4.15,6.91,12.48,7.5-1.59,2.64-12.48-7.5-4.62,7.68,13.86,8.33-1.6,2.66L173.88,574.8Zm23.22,12.46,15,6.7,1.26-2.84-11.84-5.28L211,564.63l-3.19-1.42-10.71,24Zm20.61,9.37,8.13-25L244,577.47l-1,3-14.8-4.81-2.49,7.67,13.86,4.5-1,2.94-13.85-4.5L222,594.75l15.37,5-1,3-18.68-6.07Zm45.55,3.83,3.17,1.7a11.76,11.76,0,0,1-5.41,5.4,10.82,10.82,0,0,1-7.3.5,12.53,12.53,0,0,1-6.3-3.35,10.74,10.74,0,0,1-2.72-5.85,18.08,18.08,0,0,1,.35-7.19,15.61,15.61,0,0,1,3.26-6.58,10.77,10.77,0,0,1,5.47-3.43,13.09,13.09,0,0,1,6.58,0,10.81,10.81,0,0,1,6,3.56,10.44,10.44,0,0,1,2.27,6.4l-3.52,0a8.09,8.09,0,0,0-1.57-4.7,7.07,7.07,0,0,0-3.93-2.34,8.47,8.47,0,0,0-5.28.19,7.64,7.64,0,0,0-3.72,3.1,15.45,15.45,0,0,0-2,4.7,16.13,16.13,0,0,0-.48,5.93,7.32,7.32,0,0,0,2.05,4.37,8.64,8.64,0,0,0,4,2.28,7.48,7.48,0,0,0,5.22-.44,8.58,8.58,0,0,0,3.88-4.2Zm14.12,12.25,2.83-23.05-8.61-1.06.38-3.08,20.71,2.54-.38,3.09-8.64-1.06-2.83,23-3.46-.42Zm17.56,1.66,2.29-26.22,11.63,1a15.54,15.54,0,0,1,5.27,1.18,5.88,5.88,0,0,1,2.7,2.74,7.52,7.52,0,0,1,.74,4.06,6.58,6.58,0,0,1-2.22,4.54,9.2,9.2,0,0,1-5.79,2,8.73,8.73,0,0,1,2,1.49,18.17,18.17,0,0,1,2.57,3.74l3.94,7.54-4.37-.39-3-5.76q-1.31-2.49-2.19-3.83a7.64,7.64,0,0,0-1.61-1.9,5.24,5.24,0,0,0-1.52-.85,11.45,11.45,0,0,0-1.92-.29l-4-.35-1,11.65-3.47-.31ZM299.69,600l7.46.65a11.16,11.16,0,0,0,3.76-.17,4,4,0,0,0,2.18-1.4,4.21,4.21,0,0,0,.9-2.29,3.9,3.9,0,0,0-1.08-3.17,6.33,6.33,0,0,0-4.16-1.57l-8.3-.73-.76,8.68Zm24.4,16.12-1.38-26.29,3.48-.19,1.37,26.3-3.47.18Zm29.57-10.9,3.55.57a11.79,11.79,0,0,1-3.36,6.87,10.87,10.87,0,0,1-6.74,2.85,12.59,12.59,0,0,1-7-1.12,10.86,10.86,0,0,1-4.49-4.65,18.08,18.08,0,0,1-2-6.91,15.61,15.61,0,0,1,.94-7.29,10.81,10.81,0,0,1,4.05-5,13,13,0,0,1,6.22-2.14,10.8,10.8,0,0,1,6.8,1.43,10.46,10.46,0,0,1,4.23,5.31l-3.34,1.1a8.12,8.12,0,0,0-3-3.94,7,7,0,0,0-4.48-.92,8.46,8.46,0,0,0-4.92,1.88,7.74,7.74,0,0,0-2.52,4.15,15.93,15.93,0,0,0-.38,5.11,16.27,16.27,0,0,0,1.48,5.75,7.31,7.31,0,0,0,3.36,3.47,8.59,8.59,0,0,0,4.57.84,7.49,7.49,0,0,0,4.79-2.11,8.69,8.69,0,0,0,2.3-5.23Zm18.83,6.86-5-25.84,9.74-1.9a25.61,25.61,0,0,1,4-.52,8,8,0,0,1,3.43.59,6.64,6.64,0,0,1,2.56,2.09,8.63,8.63,0,0,1,.45,9.37c-1.1,1.78-3.48,3-7.14,3.75l-6.63,1.29,2.05,10.51-3.42.66Zm.78-14.22,6.69-1.3q3.32-.65,4.46-2.15a4.47,4.47,0,0,0,.72-3.74,4.73,4.73,0,0,0-1.36-2.62,3.91,3.91,0,0,0-2.46-1.11,15.22,15.22,0,0,0-3.23.4l-6.61,1.28,1.79,9.24Zm20.45-3.57q-1.82-6.3.55-10.84a12,12,0,0,1,7.72-6.07,12.69,12.69,0,0,1,6.8-.14,11.41,11.41,0,0,1,5.62,3.45,15.6,15.6,0,0,1,3.42,6.36,15.43,15.43,0,0,1,.43,7.34,11.08,11.08,0,0,1-3.08,5.86,13.09,13.09,0,0,1-5.7,3.32,12.32,12.32,0,0,1-6.88.11,11.57,11.57,0,0,1-5.62-3.49,14.71,14.71,0,0,1-3.26-5.9Zm3.47-.94a10.52,10.52,0,0,0,4.52,6.5,8.94,8.94,0,0,0,12.39-3.58c1.12-2.24,1.22-5,.28-8.25a13.65,13.65,0,0,0-2.59-5.09,8.42,8.42,0,0,0-4.08-2.7,8.62,8.62,0,0,0-4.88,0,8.91,8.91,0,0,0-5.42,4.2q-1.86,3.18-.22,8.89Zm34.64,2.15,3.22-1.5-3.41-20.54c-.14-.87-.35-1.91-.61-3.12.24.3.93,1.12,2.06,2.45l13.5,15.83,3.05-1.42-4.58-26.91-3.18,1.48,3.41,17.07q.63,3.27,1.23,5.75a70.55,70.55,0,0,0-5.79-7.58l-9.05-10.49-3.81,1.78,3,18.23c.07.45.4,2.08,1,4.91q-1.56-2.22-3.28-4.41l-10.93-13.95-3.24,1.51,17.46,20.91ZM461,582.1l-13.56-22.57,16.31-9.81,1.6,2.67-13.33,8,4.15,6.91,12.49-7.5,1.59,2.64L457.81,570l4.61,7.68,13.86-8.33,1.6,2.67L461,582.1Zm23.11-13.81,2.81-2-6.87-9.46,3.27-2.37a11.15,11.15,0,0,1,1.65-1,5.35,5.35,0,0,1,1.69-.36,7.57,7.57,0,0,1,2.47.39c1,.28,2.42.77,4.16,1.45l6,2.38,3.55-2.57L495,551.54a18.66,18.66,0,0,0-4.4-1.13,9,9,0,0,0-2.47.17,9.18,9.18,0,0,0,3.1-5.27,6.57,6.57,0,0,0-1.31-4.88,7.46,7.46,0,0,0-3.22-2.57,5.88,5.88,0,0,0-3.84-.31,15.57,15.57,0,0,0-4.74,2.57L468.67,547l15.48,21.31Zm-5.83-13.95,6.06-4.4a11.1,11.1,0,0,0,2.73-2.6,4,4,0,0,0,.73-2.48,4.3,4.3,0,0,0-.83-2.32,3.91,3.91,0,0,0-2.9-1.69,6.33,6.33,0,0,0-4.17,1.55l-6.74,4.89,5.12,7.05Zm29.46-39,2.51-2.43,10.56,10.95a17.83,17.83,0,0,1,3.73,5.16,7.72,7.72,0,0,1,.31,5,11.36,11.36,0,0,1-3.41,5.32,12.57,12.57,0,0,1-5.24,3.29,7.26,7.26,0,0,1-5-.32,17.42,17.42,0,0,1-5.31-4.05l-10.57-10.94,2.51-2.42,10.55,10.93a14.8,14.8,0,0,0,4,3.19,4.83,4.83,0,0,0,3.31.28,7.46,7.46,0,0,0,3.35-2q2.76-2.67,2.73-5.07c0-1.58-1.18-3.57-3.48-5.94l-10.55-10.93Zm26.54,11.3,2.19-2.52L520.9,510.58l24.68,3.14,2.35-2.7-19.87-17.27-2.2,2.52,15.6,13.56-24.67-3.12-2.34,2.7,19.87,17.27Zm18.95-22.29-20.75-16.21,2.14-2.74,20.75,16.2-2.14,2.75ZM564.58,489l2-2.93L551,462.57l-2,2.91,11.58,16.8q1.31,1.89,2.72,3.63c-1.31-.46-2.75-.91-4.32-1.34l-19.59-5.37-2.17,3.1L564.58,489Zm10.32-16.1-22.8-13.16,9.51-16.49,2.69,1.55-7.77,13.47,7,4,7.28-12.61,2.68,1.55-7.29,12.61,7.77,4.48,8.08-14,2.69,1.56-9.82,17Zm12.64-23.31,1.36-3.21-10.76-4.57,1.58-3.72a10.9,10.9,0,0,1,.87-1.74,5.15,5.15,0,0,1,1.27-1.18,7.85,7.85,0,0,1,2.31-.94c1-.28,2.47-.58,4.32-.9l6.4-1.07,1.72-4-8.39,1.41a18.58,18.58,0,0,0-4.35,1.3,8.72,8.72,0,0,0-2,1.42,9.2,9.2,0,0,0-.06-6.11,6.62,6.62,0,0,0-3.64-3.52,7.47,7.47,0,0,0-4.08-.54,5.87,5.87,0,0,0-3.45,1.72,15.26,15.26,0,0,0-2.74,4.64l-4.57,10.75,24.24,10.29Zm-12.18-9-8-3.4,3.25-7.67a6.33,6.33,0,0,1,2.78-3.47,3.91,3.91,0,0,1,3.36-.05,4.26,4.26,0,0,1,1.9,1.57,4,4,0,0,1,.65,2.5,11.05,11.05,0,0,1-1,3.63l-2.93,6.89Zm14.83-19.05.74-3.22a7.13,7.13,0,0,0,3.42,0,6,6,0,0,0,2.77-1.89,10.11,10.11,0,0,0,2-3.6,9.52,9.52,0,0,0,.52-3.53,4.86,4.86,0,0,0-.84-2.66,3.75,3.75,0,0,0-1.91-1.41,3.37,3.37,0,0,0-2.28,0,5.22,5.22,0,0,0-2.21,1.77,47,47,0,0,0-2.67,4.06,24.84,24.84,0,0,1-3.13,4.33,7.14,7.14,0,0,1-3.21,1.91,5.91,5.91,0,0,1-3.4-.14,6.55,6.55,0,0,1-3.19-2.22,7,7,0,0,1-1.49-4,12.74,12.74,0,0,1,.65-4.87,13.15,13.15,0,0,1,2.49-4.62,7.43,7.43,0,0,1,3.7-2.41,8,8,0,0,1,4.35,0l-.8,3.25a5.41,5.41,0,0,0-4.15.58,7.09,7.09,0,0,0-2.63,4,7.38,7.38,0,0,0-.32,4.75A3.46,3.46,0,0,0,580.8,414a3,3,0,0,0,2.53-.25q1.18-.68,3.41-4.42a35.25,35.25,0,0,1,3.4-5,8,8,0,0,1,3.6-2.4,6.51,6.51,0,0,1,3.9.12,7.09,7.09,0,0,1,3.4,2.37,7.9,7.9,0,0,1,1.68,4.18,12.06,12.06,0,0,1-.59,5.14,15.06,15.06,0,0,1-2.84,5.37,8.38,8.38,0,0,1-4.15,2.64,8.88,8.88,0,0,1-4.95-.09Zm16.44-24.18L580.87,392l.73-3.4L607.35,394l-.72,3.41Zm3.64-18.17-22.87-4-1.5,8.55-3.06-.54,3.62-20.55,3.06.54L588,371.81l22.86,4-.6,3.43Zm4.27-26.6-11.14-.58-15.69,9.34.22-4.23,8.2-4.77q2.29-1.32,4.59-2.44-2-1.29-4.49-3.11l-7.47-5.5.21-4.06,14.61,11.29,11.14.58Z"/><rect class="cls-6" x="517.75" y="282.24" width="41.37" height="82.35"/></svg>